<?xml version="1.0" encoding="utf-8"?>
<!-- Generator: Adobe Illustrator 24.0.0, SVG Export Plug-In . SVG Version: 6.00 Build 0)  -->
<svg version="1.1" id="Layer_1" xmlns="http://www.w3.org/2000/svg" xmlns:xlink="http://www.w3.org/1999/xlink" x="0px" y="0px"
	 viewBox="0 0 136.4 106" style="enable-background:new 0 0 136.4 106;" xml:space="preserve">
<style type="text/css">
	.st0{fill:#2AAAE0;}
	.st1{fill:#747477;}
</style>
<g>
	<path class="st0" d="M89.7,42.7c3.9,0,7.8,0,11.7,0c0.5,0,0.9,0,0.9,0.7c-0.2,4-0.2,8.1-1.7,11.9c-3.1,8-8.6,13.8-16.5,17.2
		c-2.9,1.2-5.9,1.7-9,2c-3.8,0.3-7.5,0.3-11.3-0.3c-6.1-1-11.6-3.4-16.2-7.7c-4-3.8-7.1-8.2-8.9-13.5c-1.6-4.5-2-9.2-1.4-14
		c1.4-10.8,7.4-18.5,16.7-23.7c5.8-3.3,12.2-4,18.8-3.5c4.4,0.3,8.6,1.2,12.6,3c3,1.3,5.7,3.2,8.3,5.3c0.9,0.8,1.8,1.6,2.8,2.4
		c0.3,0.3,0.4,0.5,0,0.9c-1.7,1.6-3.3,3.2-4.9,4.8c-0.5,0.5-0.7,0.5-1.3,0c-4-3.7-8.5-6.4-13.8-7.5C70,19.5,64,19.8,58.3,22.6
		c-5.9,3-9.9,7.6-11.8,13.9c-1.2,4.1-1.3,8.3-0.2,12.5c0.9,3.5,2.8,6.5,5.1,9.2c3.2,3.6,7.1,6,11.8,7.1c4.7,1.1,9.4,1.1,14.1,0.2
		c4.4-0.9,8.2-2.8,11.1-6.2c2.1-2.4,3.4-5.2,4.4-8.1c0.2-0.5-0.1-0.5-0.4-0.5c-0.8,0-1.6,0-2.3,0c-4,0-8.1,0-12.1,0
		c-0.7,0-1-0.2-1-0.9c0.1-2.1,0-4.1,0-6.2c0-0.7,0.2-1,1-1C81.8,42.7,85.7,42.7,89.7,42.7C89.7,42.7,89.7,42.7,89.7,42.7z"/>
	<path class="st0" d="M77.6,27.5c0,1.1,0,2.3,0,3.4c0,0.7-0.1,0.8-0.8,0.6c-3.2-0.9-6.5-1.2-9.7,0.1c-9.1,3.9-9.7,13.4-5,19.2
		c2.5,3.1,5.8,4.6,9.7,4.4c1,0,2-0.1,2.9-0.4c0.2-0.1,0.3-0.1,0.5-0.1c2.1-0.5,2.3-0.3,2.3,1.7c0,1.8,0,3.5,0,5.3
		c0,0.5-0.1,0.7-0.7,0.9c-5.4,1.4-10.7,1.1-15.4-1.9c-6.9-4.4-11.1-11.1-10-19.9c0.8-7,4.4-12.2,10.5-15.6c4.3-2.4,9-2.9,13.8-2.1
		c1.8,0.3,1.8,0.3,1.8,2.2C77.6,25.9,77.6,26.7,77.6,27.5z"/>
	<path class="st1" d="M29.4,41.1c-0.2-3.7,0.8-7.7,2.1-11.7c0.3-0.9,1.1-1.6,1.4-2.5c2.3-5.3,5.7-9.8,10.1-13.5
		C53.7,4.5,65.7,1.8,79.1,5c7.1,1.7,13.2,5.4,18.3,10.7c0.2,0.3,0.5,0.5,0.6,0.9c0.1,0.4-0.2,0.6-0.5,0.8c-0.4,0.2-0.7,0.1-1.1-0.2
		c-1.1-1.2-2.3-2.3-3.6-3.3C86.6,8.8,79.4,6,71.3,5.5C53.2,4.4,36.7,16.4,32.2,34c-1.4,5.5-1.2,10.9-0.3,16.4c0.4,2.4,1,4.8,1.8,7.1
		c0.4,1-0.6,1-1,1.3c-0.5,0.4-0.5-0.3-0.6-0.6C30.1,52.9,29.1,47.3,29.4,41.1z"/>
	<path class="st1" d="M67,83c-8.9-0.3-17.9-3.9-25.3-11c-0.2-0.2-1-0.3-0.5-0.9c0.6-0.8,1.1-0.8,1.7-0.2c13,12.4,33,14,47.7,3.7
		c9.1-6.3,14.5-15.1,16.1-26.1c0-0.3,0.1-0.5,0.1-0.8c0-0.6,0.3-1.1,0.9-1c0.7,0.1,0.9,0.6,0.8,1.3c-0.2,1.6-0.5,3.2-0.9,4.8
		C104,66.2,95.7,75.5,82.8,80.6C78.5,82.3,73.4,83.1,67,83z"/>
	<path class="st0" d="M16.9,94.6c0.8,0,1.6,0,2.3,0c0.6,0,0.7,0.2,0.7,0.8c0,3.2-2.4,6.5-6.4,6.8c-4,0.3-7.2-1.5-8.5-5.2
		c-1.1-3.2,0.4-6.9,3.3-8.7c2.7-1.6,7.3-1.2,9.8,1.3c0.4,0.4,0.5,0.7,0,1.1c-0.2,0.1-0.4,0.3-0.5,0.5c-0.4,0.5-0.7,0.4-1.2,0
		c-2.3-2.1-5.7-2.1-7.9-0.2c-1.5,1.4-2.1,3.7-1.3,5.7C8.1,98.6,10,100,12,100c1.6,0.1,3.1,0,4.3-1.2c0.1-0.1,0.3-0.2,0.4-0.4
		c0.3-0.4,0.8-0.9,0.6-1.3c-0.2-0.5-0.9-0.2-1.3-0.3c-0.3,0-0.5,0-0.8,0c-1.2,0-1.2,0-1.2-1.2c0-0.9,0.3-1.1,1.1-1
		C15.6,94.7,16.3,94.7,16.9,94.6C16.9,94.7,16.9,94.6,16.9,94.6z"/>
	<path class="st1" d="M70.5,94.8c0-4.2,3.8-7.6,8-7.3c0.9,0.1,1.8,0.3,2.7,0.5c0.9,0.2,1.2,0.7,1.1,1.7c-0.1,1.2,0,1.2-1.1,0.7
		c-1.5-0.6-3-0.9-4.5-0.5c-2.6,0.6-4.1,2.8-4,5.5c0.2,2.4,2.2,4.4,4.6,4.7c1.5,0.2,2.9-0.1,4.1-0.8c0.6-0.3,0.8-0.3,0.8,0.4
		c0,1.8,0,1.9-1.8,2.3c-4.2,1.1-8.3-0.8-9.7-4.7C70.6,96.5,70.4,95.7,70.5,94.8z"/>
	<path class="st0" d="M27.5,97.8c-1,0-1.9,0-2.9,0c-0.2,0-0.6-0.1-0.7,0.2c-0.1,0.3,0,0.6,0.2,0.8c0.9,1.4,3,1.6,4.5,0.4
		c0.4-0.3,0.6-0.5,1.1-0.2c1.2,0.9,1.2,1,0.1,1.9c-1.4,1.2-3.9,1.5-5.5,0.6c-1.8-1-2.7-2.8-2.5-5c0.1-2.1,2.3-4.4,5.2-4.2
		c2,0.2,4.3,2.4,4.2,4.7c0,0.5-0.1,0.7-0.6,0.7C29.5,97.8,28.5,97.8,27.5,97.8z M26.3,96C26.3,96,26.3,96,26.3,96c0.6,0,1.2,0,1.9,0
		c0.2,0,0.4,0.1,0.5-0.1c0.1-0.2-0.1-0.3-0.2-0.5c-1-1.3-3.1-1.3-4.1,0c-0.1,0.1-0.3,0.3-0.2,0.5c0.1,0.3,0.3,0.1,0.5,0.2
		C25.1,96,25.7,96,26.3,96z"/>
	<path class="st1" d="M88.7,92.4c2.6,0,4.8,2.3,4.8,4.9c0,2.6-2.3,4.8-4.8,4.8c-2.7-0.1-4.9-2.3-4.9-5
		C83.8,94.6,86.1,92.4,88.7,92.4z M88.6,99.9c1.5,0,2.7-1.1,2.8-2.6c0-1.5-1.2-2.7-2.7-2.7c-1.5,0-2.8,1.2-2.8,2.6
		C85.9,98.7,87.1,99.9,88.6,99.9z"/>
	<path class="st1" d="M105.8,26.9c3,0,5.5,2.4,5.6,5.3c0.1,3.1-2.4,5.6-5.5,5.7c-3,0-5.4-2.4-5.5-5.4
		C100.4,29.5,102.8,27,105.8,26.9z M109.7,32.5c0.1-2.1-1.6-3.8-3.6-3.9c-2.1-0.1-3.9,1.6-4,3.7c-0.1,2.1,1.6,3.9,3.7,3.9
		C107.9,36.3,109.6,34.6,109.7,32.5z"/>
	<path class="st0" d="M35.2,93.6c1.2-1,2.4-1.6,3.9-0.8c1,0.5,1.6,1.3,1.6,2.4c0.1,2,0,4,0,6c0,0.5-0.2,0.6-0.6,0.6
		c-1.6,0.1-1.6,0.1-1.6-1.5c0-1.3,0-2.7,0-4c0-1.1-0.4-1.7-1.2-1.9c-0.7-0.2-1.7,0.4-2.1,1.1C35,96,35,96.4,35,96.9c0,1.3,0,2.7,0,4
		c0,0.7-0.2,0.9-0.9,0.8c-0.2,0-0.4,0-0.6,0c-0.5,0.1-0.7-0.2-0.7-0.7c0-2.5,0-5,0-7.5c0-0.4-0.2-1,0.5-0.9c0.6,0.1,1.5-0.6,1.7,0.7
		C35,93.4,35.1,93.5,35.2,93.6z"/>
	<path class="st0" d="M55.3,95.9c0,0.8,0,1.6,0,2.3c0,2-1.5,3.6-3.4,3.8c-2.3,0.2-4.1-1-4.4-3.1c-0.3-1.9-0.1-3.9-0.1-5.8
		c0-0.3,0.1-0.4,0.4-0.4c0.1,0,0.3,0,0.4,0c1.6,0,1.4-0.1,1.4,1.4c0,1.5-0.1,2.9,0.1,4.4c0.1,0.8,0.6,1.2,1.3,1.3
		c0.8,0.1,1.5-0.1,1.9-0.8c0.2-0.4,0.2-0.8,0.2-1.2c0-1.4,0-2.8,0-4.2c0-0.7,0.1-0.9,0.8-0.9c1.4,0.1,1.3-0.2,1.3,1.4
		C55.3,94.7,55.3,95.3,55.3,95.9z"/>
	<path class="st1" d="M97.2,93.8c1-1,2-1.6,3.4-1.3c1.4,0.4,2.3,1.4,2.3,2.9c0,1.9,0,3.7,0,5.6c0,0.7-0.2,0.9-0.9,0.9
		c-1.3,0-1.3,0-1.3-1.3c0-1.4,0-2.9,0-4.3c0-0.9-0.2-1.6-1.1-1.8c-0.8-0.2-1.7,0.3-2.1,1.1c-0.2,0.5-0.4,1-0.3,1.6
		c0,1.3,0,2.6,0,3.9c0,0.6-0.1,0.8-0.8,0.8c-0.3,0-0.6,0-0.9,0c-0.4,0-0.5-0.2-0.5-0.5c0-2.7,0-5.3,0-8c0-0.4,0.1-0.5,0.5-0.6
		C96.7,92.5,97,92.7,97.2,93.8z"/>
	<path class="st1" d="M120,96.1c-0.1,0.9,0.1,2-0.1,3c-0.4,1.8-2,3-4,2.9c-2-0.1-3.6-1.3-3.7-3.3c-0.1-1.8-0.1-3.7-0.1-5.6
		c0-0.4,0.2-0.6,0.5-0.5c0.3,0,0.6,0,0.9,0c0.6,0,0.7,0.2,0.7,0.7c0,1.5,0,3,0,4.5c0,1.2,0.6,1.8,1.6,1.9c1.3,0.1,2-0.6,2-1.9
		c0-1.4,0-2.9,0-4.3c0-0.7,0.1-1,0.9-0.9c0.6,0.1,1.4-0.2,1.3,0.9C120,94.4,120,95.2,120,96.1z"/>
	<path class="st0" d="M59.9,102.1c-1.2,0-2.2-0.6-2.9-1.5c-0.3-0.3-0.2-0.5,0.1-0.7c0.7-0.4,1.3-0.8,2.1-0.1
		c0.3,0.3,0.7,0.3,1.1,0.2c0.4-0.1,0.7-0.3,0.9-0.7c0.1-0.4-0.2-0.7-0.5-0.9c-0.6-0.3-1.2-0.6-1.7-0.9c-1.7-0.9-2.2-2-1.7-3.4
		c0.5-1.3,2-2,3.6-1.7c0.4,0.1,0.8,0.3,1.2,0.4c1.3,0.7,1.3,1,0.1,1.9c-0.3,0.2-0.6,0.3-0.9,0c-0.1-0.1-0.2-0.2-0.4-0.2
		c-0.6-0.1-1.3-0.4-1.6,0.2c-0.3,0.7,0.5,0.8,0.9,1.1c0.3,0.2,0.7,0.3,1.1,0.5c1.6,0.7,2.2,1.9,1.9,3.3
		C62.7,101.1,61.4,102.1,59.9,102.1z"/>
	<path class="st1" d="M107.2,92.4c1.4,0,2.3,0.5,3.1,1.1c0.3,0.3,0.3,0.4,0,0.7c-0.6,0.5-1.1,1.2-1.9,0.4c-0.1-0.1-0.2-0.1-0.3-0.1
		c-0.5,0-1.1-0.2-1.3,0.4c-0.2,0.6,0.4,0.8,0.8,1c0.5,0.3,1,0.5,1.5,0.7c1.4,0.8,2,1.9,1.6,3.2c-0.4,1.3-1.8,2.3-3.3,2.2
		c-1.1-0.1-2-0.6-2.7-1.4c-0.3-0.4-0.3-0.6,0.2-0.8c0.6-0.3,1.3-0.7,1.9,0c0.2,0.2,0.5,0.2,0.9,0.2c0.5,0,1-0.2,1.2-0.7
		c0.2-0.5-0.3-0.8-0.6-1c-0.6-0.3-1.2-0.6-1.8-0.9c-1.4-0.7-1.9-1.7-1.6-3C104.9,93.3,106.1,92.5,107.2,92.4z"/>
	<path class="st1" d="M127.6,98.2c0-0.9,0-1.7,0-2.6c0-0.6-0.1-0.9-0.8-0.8c-0.7,0.1-0.8-0.4-0.7-0.9c0-0.5-0.2-1.3,0.7-1.1
		c0.6,0.1,0.8-0.2,0.7-0.8c0-0.2,0-0.4,0-0.6c-0.2-0.9,0.2-1.2,1.1-1.2c0.8,0,1.1,0.2,1.1,1.1c-0.1,1.3,0,1.3,1.2,1.5
		c0.9,0.1,0.5,0.8,0.5,1.3c0.1,0.5,0,0.9-0.6,0.8c-1-0.2-1.2,0.3-1.2,1.2c0.1,1.7,0,3.3,0,5c0,0.6-0.1,0.9-0.8,0.8
		c-1.7,0-1.4,0.1-1.4-1.4C127.6,99.7,127.6,98.9,127.6,98.2z"/>
	<path class="st1" d="M122.4,94.8c0-2.1,0.1-4.2,0-6.3c0-1,0.6-0.8,1.2-0.9c0.6,0,1.1,0,1.1,0.9c0,4.2-0.1,8.3,0,12.5
		c0,1-0.6,0.8-1.2,0.8c-0.6,0-1.1,0.1-1.1-0.8C122.4,98.9,122.4,96.8,122.4,94.8z"/>
	<path class="st0" d="M36.2,68.3c-1.6,0-2.5-0.9-2.6-2.5c0-1.5,1.1-2.6,2.6-2.6c1.3,0,2.5,1.1,2.5,2.5
		C38.8,67.3,37.7,68.3,36.2,68.3z"/>
	<path class="st0" d="M45.1,97.2c0,1.3,0,2.6,0,3.9c0,0.9-0.6,0.7-1.1,0.7c-0.5,0-1.1,0.2-1.1-0.7c0-2.5,0-5.1,0-7.6
		c0-0.6,0.1-0.8,0.8-0.8c1.4,0,1.4,0,1.4,1.4C45.1,95.1,45.1,96.2,45.1,97.2C45.1,97.2,45.1,97.2,45.1,97.2z"/>
	<path class="st0" d="M45.6,90c0,0.8-0.8,1.6-1.6,1.6c-0.8,0-1.6-0.8-1.7-1.6c0-0.9,0.7-1.6,1.7-1.6C45,88.4,45.6,89.1,45.6,90z"/>
	<path class="st0" d="M105.8,34.2c-1,0-1.9-0.9-1.9-1.9c0-0.9,0.9-1.8,1.9-1.8c0.9,0,1.9,0.9,1.9,1.8
		C107.8,33.3,106.9,34.2,105.8,34.2z"/>
</g>
</svg>
