<?xml version="1.0" encoding="utf-8"?>
<!-- Generator: Adobe Illustrator 24.0.0, SVG Export Plug-In . SVG Version: 6.00 Build 0)  -->
<svg version="1.1" id="Layer_1" xmlns="http://www.w3.org/2000/svg" xmlns:xlink="http://www.w3.org/1999/xlink" x="0px" y="0px"
	 viewBox="0 0 235 106" style="enable-background:new 0 0 235 106;" xml:space="preserve">
<style type="text/css">
	.st0{enable-background:new    ;}
	.st1{fill:#059BDD;}
	.st2{fill:#5E5E62;}
	.st3{fill:#079BDC;}
	.st4{fill:#089BDC;}
	.st5{fill:#666669;}
	.st6{fill:#656568;}
	.st7{fill:#119FDE;}
	.st8{fill:#16A1DE;}
</style>
<g>
	<g class="st0">
		<path class="st1" d="M12.4,82.6v-2.9h10.5v9.2c-1.6,1.3-3.3,2.3-5,2.9s-3.5,1-5.3,1c-2.4,0-4.7-0.5-6.6-1.6c-2-1-3.5-2.6-4.5-4.5
			c-1-2-1.5-4.2-1.5-6.6s0.5-4.7,1.5-6.8c1-2.1,2.5-3.6,4.4-4.7c1.9-1,4.1-1.5,6.6-1.5c1.8,0,3.4,0.3,4.9,0.9s2.6,1.4,3.4,2.4
			s1.5,2.4,1.9,4.1l-3,0.8c-0.4-1.3-0.8-2.3-1.4-3S17,71,15.9,70.6c-1-0.4-2.2-0.7-3.4-0.7c-1.5,0-2.8,0.2-3.9,0.7s-2,1.1-2.6,1.8
			c-0.7,0.7-1.2,1.6-1.6,2.5c-0.6,1.5-0.9,3.2-0.9,5c0,2.2,0.4,4.1,1.1,5.6s1.9,2.6,3.3,3.3c1.5,0.7,3,1.1,4.6,1.1
			c1.4,0,2.8-0.3,4.2-0.8s2.4-1.1,3.1-1.8v-4.6h-7.4V82.6z"/>
		<path class="st1" d="M39.7,86.5l3.1,0.4c-0.5,1.8-1.4,3.3-2.8,4.3c-1.3,1-3.1,1.5-5.1,1.5c-2.6,0-4.7-0.8-6.3-2.4
			c-1.5-1.6-2.3-3.9-2.3-6.8c0-3,0.8-5.4,2.3-7c1.6-1.7,3.6-2.5,6.1-2.5c2.4,0,4.4,0.8,5.9,2.5c1.5,1.6,2.3,3.9,2.3,6.9
			c0,0.2,0,0.5,0,0.8H29.5c0.1,2,0.7,3.5,1.7,4.5s2.3,1.6,3.8,1.6c1.1,0,2.1-0.3,2.9-0.9C38.6,88.7,39.3,87.8,39.7,86.5z M29.7,81.6
			h10c-0.1-1.5-0.5-2.6-1.2-3.4c-1-1.2-2.2-1.8-3.8-1.8c-1.4,0-2.6,0.5-3.5,1.4C30.3,78.8,29.8,80,29.7,81.6z"/>
		<path class="st1" d="M46.7,92.3v-18h2.7v2.6c1.3-2,3.2-3,5.7-3c1.1,0,2.1,0.2,3,0.6s1.6,0.9,2,1.5c0.5,0.6,0.8,1.4,0.9,2.3
			c0.1,0.6,0.2,1.6,0.2,3v11.1h-3v-11c0-1.2-0.1-2.2-0.4-2.8c-0.2-0.6-0.7-1.1-1.3-1.5s-1.3-0.6-2.1-0.6c-1.3,0-2.4,0.4-3.4,1.2
			c-0.9,0.8-1.4,2.4-1.4,4.7v9.8h-2.9V92.3z"/>
		<path class="st1" d="M66,71v-3.5h3V71H66z M66,92.3v-18h3v18H66z"/>
		<path class="st1" d="M85.5,92.3v-2.6c-1.4,2-3.3,3-5.7,3c-1.1,0-2.1-0.2-3-0.6s-1.6-0.9-2-1.5s-0.8-1.4-0.9-2.3
			c-0.1-0.6-0.2-1.5-0.2-2.8V74.3h3v10c0,1.6,0.1,2.7,0.2,3.2c0.2,0.8,0.6,1.4,1.2,1.9s1.4,0.7,2.3,0.7s1.8-0.2,2.6-0.7
			c0.8-0.5,1.4-1.1,1.7-1.9c0.3-0.8,0.5-2,0.5-3.5v-9.6h3v18L85.5,92.3L85.5,92.3z"/>
		<path class="st1" d="M91.8,86.9l3-0.5c0.2,1.2,0.6,2.1,1.4,2.8c0.8,0.6,1.9,1,3.2,1c1.4,0,2.4-0.3,3.1-0.9s1-1.2,1-2
			c0-0.7-0.3-1.2-0.9-1.6c-0.4-0.3-1.5-0.6-3.1-1c-2.2-0.6-3.8-1.1-4.6-1.5c-0.9-0.4-1.5-1-2-1.7c-0.4-0.7-0.7-1.5-0.7-2.4
			c0-0.8,0.2-1.5,0.6-2.2s0.9-1.3,1.5-1.7c0.5-0.3,1.1-0.6,1.9-0.9c0.8-0.2,1.7-0.4,2.6-0.4c1.4,0,2.6,0.2,3.7,0.6s1.9,1,2.4,1.7
			s0.9,1.6,1,2.8l-3,0.4c-0.1-0.9-0.5-1.6-1.2-2.2c-0.6-0.5-1.6-0.8-2.8-0.8c-1.4,0-2.4,0.2-3,0.7s-0.9,1-0.9,1.6
			c0,0.4,0.1,0.8,0.4,1.1c0.2,0.3,0.6,0.6,1.2,0.8c0.3,0.1,1.2,0.4,2.7,0.8c2.2,0.6,3.7,1,4.5,1.4c0.9,0.4,1.5,0.9,2,1.6
			s0.7,1.6,0.7,2.6s-0.3,2-0.9,2.9s-1.4,1.6-2.6,2.1c-1.1,0.5-2.4,0.7-3.8,0.7c-2.3,0-4.1-0.5-5.3-1.5
			C92.9,90.3,92.1,88.8,91.8,86.9z"/>
	</g>
	<g class="st0">
		<path class="st2" d="M138.1,83.6l3.3,0.8c-0.7,2.7-1.9,4.8-3.7,6.2c-1.8,1.4-4,2.1-6.6,2.1c-2.7,0-4.9-0.5-6.5-1.6
			c-1.7-1.1-3-2.7-3.8-4.7c-0.9-2.1-1.3-4.3-1.3-6.7c0-2.6,0.5-4.8,1.5-6.8c1-1.9,2.4-3.4,4.2-4.4c1.8-1,3.8-1.5,6-1.5
			c2.5,0,4.6,0.6,6.3,1.9s2.9,3,3.5,5.3l-3.2,0.8c-0.6-1.8-1.4-3.1-2.5-3.9s-2.5-1.2-4.1-1.2c-1.9,0-3.5,0.5-4.8,1.4
			s-2.2,2.1-2.7,3.7c-0.5,1.5-0.8,3.1-0.8,4.8c0,2.1,0.3,4,0.9,5.5c0.6,1.6,1.6,2.8,2.9,3.5c1.3,0.8,2.7,1.2,4.2,1.2
			c1.8,0,3.4-0.5,4.7-1.6C136.7,87.3,137.6,85.7,138.1,83.6z"/>
		<path class="st2" d="M143.9,83.3c0-3.3,0.9-5.8,2.8-7.4c1.5-1.3,3.4-2,5.7-2c2.5,0,4.5,0.8,6.1,2.4s2.4,3.9,2.4,6.7
			c0,2.3-0.3,4.1-1,5.5c-0.7,1.3-1.7,2.4-3,3.1s-2.8,1.1-4.3,1.1c-2.5,0-4.6-0.8-6.1-2.4C144.6,88.7,143.9,86.4,143.9,83.3z
			 M147,83.3c0,2.3,0.5,4,1.5,5.2c1,1.1,2.3,1.7,3.8,1.7s2.8-0.6,3.8-1.7c1-1.2,1.5-2.9,1.5-5.3c0-2.2-0.5-3.9-1.5-5.1
			c-1-1.1-2.3-1.7-3.8-1.7s-2.8,0.6-3.8,1.7C147.5,79.3,147,81,147,83.3z"/>
		<path class="st2" d="M164.3,92.3v-18h2.7v2.6c1.3-2,3.2-3,5.7-3c1.1,0,2.1,0.2,3,0.6s1.6,0.9,2,1.5c0.5,0.6,0.8,1.4,0.9,2.3
			c0.1,0.6,0.2,1.6,0.2,3v11.1h-3v-11c0-1.2-0.1-2.2-0.4-2.8c-0.2-0.6-0.7-1.1-1.3-1.5s-1.3-0.6-2.1-0.6c-1.3,0-2.4,0.4-3.4,1.2
			c-0.9,0.8-1.4,2.4-1.4,4.7v9.8h-2.9V92.3z"/>
		<path class="st2" d="M182.4,86.9l3-0.5c0.2,1.2,0.6,2.1,1.4,2.8c0.8,0.6,1.9,1,3.2,1c1.4,0,2.4-0.3,3.1-0.9c0.7-0.6,1-1.2,1-2
			c0-0.7-0.3-1.2-0.9-1.6c-0.4-0.3-1.5-0.6-3.1-1c-2.2-0.6-3.8-1.1-4.6-1.5c-0.9-0.4-1.5-1-2-1.7c-0.4-0.7-0.7-1.5-0.7-2.4
			c0-0.8,0.2-1.5,0.6-2.2c0.4-0.7,0.9-1.3,1.5-1.7c0.5-0.3,1.1-0.6,1.9-0.9c0.8-0.2,1.7-0.4,2.6-0.4c1.4,0,2.6,0.2,3.7,0.6
			c1.1,0.4,1.9,1,2.4,1.7s0.9,1.6,1,2.8l-3,0.4c-0.1-0.9-0.5-1.6-1.2-2.2c-0.6-0.5-1.6-0.8-2.8-0.8c-1.4,0-2.4,0.2-3,0.7
			s-0.9,1-0.9,1.6c0,0.4,0.1,0.8,0.4,1.1c0.2,0.3,0.6,0.6,1.2,0.8c0.3,0.1,1.2,0.4,2.7,0.8c2.2,0.6,3.7,1,4.5,1.4
			c0.9,0.4,1.5,0.9,2,1.6s0.7,1.6,0.7,2.6s-0.3,2-0.9,2.9c-0.6,0.9-1.4,1.6-2.6,2.1c-1.1,0.5-2.4,0.7-3.8,0.7
			c-2.3,0-4.1-0.5-5.3-1.5C183.5,90.3,182.7,88.8,182.4,86.9z"/>
		<path class="st2" d="M212.7,92.3v-2.6c-1.4,2-3.3,3-5.7,3c-1.1,0-2.1-0.2-3-0.6s-1.6-0.9-2-1.5s-0.8-1.4-0.9-2.3
			c-0.1-0.6-0.2-1.5-0.2-2.8V74.3h3v10c0,1.6,0.1,2.7,0.2,3.2c0.2,0.8,0.6,1.4,1.2,1.9c0.6,0.5,1.4,0.7,2.3,0.7
			c0.9,0,1.8-0.2,2.6-0.7s1.4-1.1,1.7-1.9s0.5-2,0.5-3.5v-9.6h3v18L212.7,92.3L212.7,92.3z"/>
		<path class="st2" d="M220.1,92.3V67.5h3v24.8C223.1,92.3,220.1,92.3,220.1,92.3z"/>
		<path class="st2" d="M234.6,89.6l0.4,2.7c-0.9,0.2-1.6,0.3-2.3,0.3c-1.1,0-2-0.2-2.6-0.5s-1-0.8-1.3-1.4c-0.2-0.6-0.4-1.8-0.4-3.6
			V76.7h-2.2v-2.4h2.2v-4.5l3-1.8v6.3h3.1v2.4h-3.1v10.5c0,0.9,0.1,1.4,0.2,1.7c0.1,0.2,0.3,0.4,0.5,0.6c0.2,0.1,0.6,0.2,1,0.2
			C233.6,89.7,234,89.7,234.6,89.6z"/>
	</g>
	<g>
		<path class="st3" d="M86.2,41.8c2.9,0,5.8,0,8.7,0c0.4,0,0.6,0.1,0.5,0.6c-0.1,2.1-0.1,4.3-0.6,6.3c-1.3,5.2-4.1,9.4-8.5,12.6
			c-3,2.2-6.4,3.4-10.1,3.8c-3.6,0.4-7.1,0.3-10.6-0.4c-10.5-2.1-17.6-11.9-18.2-20.9c-0.9-13.4,9.3-22.8,19.1-24.3
			c6-0.9,11.8-0.3,17.3,2.4c2.7,1.3,5,3.2,7.2,5.2c0.2,0.2,0.2,0.3,0,0.5c-1.3,1.2-2.5,2.5-3.8,3.7c-0.3,0.3-0.4,0.2-0.7,0
			c-2.8-2.7-6.1-4.6-9.9-5.5c-4.3-1-8.6-0.9-12.7,0.9c-6.7,2.9-10.6,9.2-10.2,16.6c0.4,7.2,5.9,13.6,13.1,15.2
			c3.4,0.8,6.8,0.8,10.2,0.1c5.6-1.1,9.3-4.4,11.2-9.8c0.4-1.1,0.4-1.2-0.8-1.2c-3.3,0-6.6,0-10,0c-0.4,0-0.6-0.1-0.6-0.6
			c0-1.6,0-3.2,0-4.8c0-0.4,0.1-0.6,0.6-0.6C80.4,41.8,83.3,41.8,86.2,41.8z"/>
		<path class="st4" d="M77.4,30.7c0,0.9,0,1.8,0,2.7c0,0.4-0.1,0.4-0.5,0.3c-2.1-0.6-4.2-0.8-6.4-0.3c-4.1,1.1-7,5.1-6.7,9.2
			c0.4,4.6,3.7,8,8.1,8.4c1.1,0.1,2.3,0,3.4-0.3c0.5-0.2,1.1-0.2,1.6-0.2c0.3,0,0.4,0.1,0.4,0.4c0,1.7,0,3.3,0,5
			c0,0.3-0.1,0.4-0.4,0.5c-4.7,1.3-9.1,0.6-13-2.5c-2.8-2.2-4.8-4.9-5.6-8.4c-1.9-9,3.8-16.7,12-18.1c2.2-0.4,4.3-0.4,6.5,0.1
			c0.4,0.1,0.6,0.3,0.5,0.7C77.4,29,77.4,29.8,77.4,30.7z"/>
	</g>
	<g>
		<path class="st5" d="M67.4,72.3c0.1-0.3-0.2-0.2-0.3-0.2c-1.5-0.2-2.9-0.5-4.3-0.9c-4.7-1.4-8.9-3.7-12.4-7.2
			c-0.1-0.1-0.2-0.1-0.3-0.2c-0.1-0.1-0.1-0.2-0.1-0.2c0.3-0.2,0.5-0.4,0.8-0.6c0.2-0.1,0.3,0.1,0.4,0.2c0.9,0.9,1.9,1.7,2.9,2.5
			c5.3,3.8,11.1,5.7,17.6,5.4c8.1-0.3,14.9-3.5,20.3-9.5c3.6-4,5.8-8.7,6.7-14c0.1-0.5,0.2-1.1,0.2-1.6c0.1-0.4,0.3-0.7,0.7-0.7
			c0.4,0.1,0.6,0.4,0.5,0.9c-0.6,5.3-2.5,10.1-5.7,14.4c-5,6.6-11.6,10.5-19.9,11.6c-0.3,0-0.3,0-0.4,0.3c-0.1,0-0.1,0-0.2,0
			c-0.2-0.2-0.4-0.2-0.9,0c-1.7,0-3.4,0-5.1,0c-0.3-0.2-0.4-0.2-0.5,0C67.5,72.3,67.5,72.3,67.4,72.3z"/>
		<path class="st6" d="M41.3,40.9c-0.2-2.1,0.4-4.6,1.1-7c0.3-1,0.6-2.1,1.3-3c0.3-0.4,0.4-0.8,0.6-1.2c1.4-3.2,3.5-6,6.1-8.3
			c7.3-6.8,15.9-9.4,25.8-7.7c6.3,1,11.5,4,16,8.5c0.3,0.3,0.5,0.6,0.2,1c-0.3,0.4-0.7,0.3-1.1-0.1c-1.2-1.3-2.6-2.4-4-3.5
			c-4.2-2.9-8.8-4.7-13.9-5.1c-7.9-0.6-15,1.6-21,6.8c-5.8,5-9,11.4-9.7,19.1c-0.3,3,0.2,5.9,0.8,8.8c0.3,1.4,0.6,2.8,1.1,4.1
			c0.1,0.2,0.2,0.4,0,0.5c-0.3,0.2-0.5,0.5-0.9,0.5c-0.1,0-0.2-0.2-0.2-0.3C41.8,49.9,41,45.7,41.3,40.9z"/>
		<path class="st6" d="M98.3,30.5c2.2,0,4.1,1.8,4.2,4c0,2.3-1.8,4.2-4.1,4.2c-2.2,0-4.1-1.8-4.1-4C94.2,32.3,96,30.5,98.3,30.5z
			 M98.4,31.7c-1.6,0-2.9,1.2-2.9,2.9c0,1.5,1.3,2.8,2.8,2.9c1.5,0,2.8-1.3,2.9-2.8C101.2,33,99.9,31.7,98.4,31.7z"/>
	</g>
	<g>
		<path class="st7" d="M47.9,59.4c0,1.1-0.8,1.9-1.9,1.9c-1.1,0-1.9-0.9-1.9-1.9c0-1,0.9-1.9,1.9-1.9C47.1,57.5,47.9,58.3,47.9,59.4
			z"/>
		<path class="st8" d="M96.6,34.3c0-0.8,0.7-1.4,1.4-1.4c0.8,0,1.5,0.7,1.5,1.5c0,0.7-0.7,1.4-1.5,1.5
			C97.3,35.8,96.6,35.1,96.6,34.3z"/>
	</g>
</g>
</svg>
