<svg width="368" height="320" viewBox="0 0 368 320" fill="none" xmlns="http://www.w3.org/2000/svg">
<path d="M165.651 320C221.669 320 267.08 317.72 267.08 314.909C267.08 312.097 221.669 309.817 165.651 309.817C109.633 309.817 64.2216 312.097 64.2216 314.909C64.2216 317.72 109.633 320 165.651 320Z" fill="#E6E6E6"/>
<path d="M50.3343 100.56C78.1332 100.56 100.669 78.0485 100.669 50.2798C100.669 22.511 78.1332 0 50.3343 0C22.5355 0 0 22.511 0 50.2798C0 78.0485 22.5355 100.56 50.3343 100.56Z" fill="#E6E6E6"/>
<path d="M50.3343 92.1796C73.5001 92.1796 92.2796 73.4204 92.2796 50.2798C92.2796 27.1392 73.5001 8.38 50.3343 8.38C27.1686 8.38 8.38904 27.1392 8.38904 50.2798C8.38904 73.4204 27.1686 92.1796 50.3343 92.1796Z" fill="#0371C0"/>
<path d="M184 100.56C211.799 100.56 234.334 78.0485 234.334 50.2798C234.334 22.511 211.799 0 184 0C156.201 0 133.666 22.511 133.666 50.2798C133.666 78.0485 156.201 100.56 184 100.56Z" fill="#E6E6E6"/>
<path d="M184 92.1796C207.166 92.1796 225.945 73.4204 225.945 50.2798C225.945 27.1392 207.166 8.38 184 8.38C160.834 8.38 142.055 27.1392 142.055 50.2798C142.055 73.4204 160.834 92.1796 184 92.1796Z" fill="white"/>
<path d="M317.666 100.56C345.465 100.56 368 78.0485 368 50.2798C368 22.511 345.465 0 317.666 0C289.867 0 267.331 22.511 267.331 50.2798C267.331 78.0485 289.867 100.56 317.666 100.56Z" fill="#E6E6E6"/>
<path d="M317.666 92.1796C340.831 92.1796 359.611 73.4204 359.611 50.2798C359.611 27.1392 340.831 8.38 317.666 8.38C294.5 8.38 275.72 27.1392 275.72 50.2798C275.72 73.4204 294.5 92.1796 317.666 92.1796Z" fill="white"/>
<path d="M46.4439 67.495L34.224 51.8007L41.3302 46.279L47.1162 53.7105L66.6625 33.0999L73.1984 39.2854L46.4439 67.495Z" fill="white"/>
<path d="M139.526 60.5324C136.22 52.5573 135.684 45.0304 140.344 38.3445C140.426 36.098 140.96 33.8909 141.913 31.8543C142.866 29.8176 144.218 27.9929 145.89 26.4882C147.562 24.9836 149.52 23.8297 151.647 23.0951C153.774 22.3604 156.027 22.06 158.272 22.2115L161.31 22.4166C164.447 22.6201 167.463 23.7015 170.013 25.5371C172.563 27.3728 174.544 29.8884 175.73 32.7962C181.396 46.8322 181.574 65.4867 180.16 85.4814H138.607C141.075 76.1306 142.342 67.3545 139.526 60.5324Z" fill="#2F2E41"/>
<path d="M85.8642 85.0011L74.8832 80.0737C73.7891 79.5827 72.8134 78.8626 72.0223 77.962C71.2311 77.0614 70.6431 76.0014 70.2979 74.8539C69.9528 73.7064 69.8587 72.4982 70.0219 71.3112C70.1851 70.1242 70.6018 68.9861 71.2439 67.9741C71.9539 66.8549 72.9202 65.9203 74.0629 65.2475C75.2056 64.5747 76.492 64.1828 77.8162 64.1043C79.1403 64.0258 80.4641 64.2628 81.6785 64.7958C82.8929 65.3288 83.963 66.1426 84.8007 67.17L89.8738 73.3923L113.525 94.3456L129.246 83.8654L136.372 95.9329L110.869 111.321L85.8642 85.0011Z" fill="#9F616A"/>
<path d="M135.227 99.4825L126.557 82.9116L160.315 67.8915L160.607 71.0612C160.876 73.9779 160.377 76.9142 159.16 79.579C157.943 82.2437 156.05 84.5445 153.668 86.253L135.227 99.4825Z" fill="#0371C0"/>
<path d="M178.973 66.9015L144.543 95.3644L142.564 92.5972L152.062 75.5985L156.415 73.6219C157.458 69.2078 154.796 63.2883 151.27 57.0185L167.892 54.6466C168.694 60.0316 172.348 64.1346 178.973 66.9015Z" fill="#9F616A"/>
<path d="M220.526 263.375L214.788 271.874L169.079 245.981L175.411 214.751L220.526 263.375Z" fill="#2F2E41"/>
<path d="M160.175 303.895L150.875 299.744L148.5 191.032L139.596 131.931L174.224 125.409L181.347 140.826C198.853 164.809 173.334 238.296 160.175 303.895Z" fill="#2F2E41"/>
<path d="M160.925 302.418L162.833 306.566C163.191 307.346 163.363 308.198 163.333 309.056C163.304 309.913 163.075 310.752 162.664 311.505C162.253 312.259 161.671 312.906 160.966 313.395C160.26 313.884 159.45 314.202 158.6 314.323L133.371 317.923C132.13 318.1 130.868 317.823 129.817 317.142C128.765 316.461 127.996 315.423 127.652 314.219C127.335 313.111 127.397 311.929 127.828 310.86C128.26 309.792 129.035 308.897 130.033 308.318L151.227 297.721L160.925 302.418Z" fill="#2F2E41"/>
<path d="M219.345 261.769L223.903 261.434C224.76 261.372 225.619 261.509 226.413 261.837C227.207 262.164 227.913 262.672 228.476 263.321C229.039 263.969 229.442 264.739 229.654 265.571C229.866 266.402 229.881 267.271 229.697 268.11L224.247 292.978C223.979 294.201 223.276 295.285 222.27 296.031C221.264 296.776 220.021 297.132 218.772 297.033C217.622 296.942 216.535 296.471 215.684 295.693C214.832 294.916 214.265 293.877 214.071 292.741L211.548 269.2L219.345 261.769Z" fill="#2F2E41"/>
<path d="M157.207 62.553C165.949 62.553 173.037 55.4734 173.037 46.7402C173.037 38.0071 165.949 30.9275 157.207 30.9275C148.464 30.9275 141.377 38.0071 141.377 46.7402C141.377 55.4734 148.464 62.553 157.207 62.553Z" fill="#9F616A"/>
<path d="M173.432 127.78L139.002 134.896L138.211 111.968C133.225 106.695 144.853 85.5786 148.896 75.5984L154.041 74.0171L145.334 89.8299L175.807 64.9248L181.743 66.5061L183.326 95.3643L173.432 127.78Z" fill="#0371C0"/>
<path d="M175.807 141.617L168.34 151.049C167.596 151.989 166.659 152.758 165.591 153.305C164.524 153.851 163.351 154.161 162.153 154.215C160.955 154.269 159.759 154.065 158.646 153.617C157.534 153.169 156.531 152.487 155.706 151.618C154.793 150.657 154.121 149.492 153.748 148.221C153.374 146.95 153.308 145.608 153.555 144.306C153.802 143.005 154.356 141.78 155.17 140.734C155.984 139.688 157.036 138.85 158.238 138.29L165.517 134.896L191.637 117.107L185.305 99.3177L198.76 95.3645L207.467 123.827L175.807 141.617Z" fill="#9F616A"/>
<path d="M177.192 82.3189H148.512C149.589 76.9038 152.478 71.9911 160.379 68.4688C166.14 57.4699 168.602 47.4935 160.379 40.8276C150.987 38.6663 147.35 34.7416 148.512 29.3462L165.324 26.579C179.15 38.8792 179.308 59.8755 177.192 82.3189Z" fill="#2F2E41"/>
<path d="M201.926 97.341L183.722 101.69L177.39 65.3202L180.538 65.8116C183.435 66.2638 186.164 67.4645 188.453 69.2947C190.743 71.1248 192.513 73.5209 193.59 76.2454L201.926 97.341Z" fill="#0371C0"/>
</svg>
