<svg width="10" height="16" viewBox="0 0 10 16" fill="none" xmlns="http://www.w3.org/2000/svg">
<path d="M2.78878 6.25313H3.28878V5.75313V3.93762C3.28878 2.87024 3.67319 2.02714 4.32824 1.44572C4.98931 0.858951 5.97073 0.500066 7.22454 0.5C7.22466 0.5 7.22477 0.5 7.22488 0.5L9.5 0.503158V2.5984L8.00727 2.59886C8.00722 2.59886 8.00717 2.59886 8.00712 2.59886C7.4253 2.59888 6.91957 2.68998 6.58077 3.02195C6.23409 3.36162 6.18957 3.8289 6.18957 4.2141V5.75313V6.25313H6.68957H9.38755L9.38655 8.53625H6.68957H6.18957V9.03625V15.5H3.28878V9.03625V8.53625H2.78878H0.5V6.25313H2.78878Z" stroke="#9DA8B6"/>
</svg>
