<svg width="477" height="288" viewBox="0 0 477 288" fill="none" xmlns="http://www.w3.org/2000/svg">
<path d="M303.356 288C399.257 288 477 281.039 477 272.452C477 263.864 399.257 256.903 303.356 256.903C207.455 256.903 129.712 263.864 129.712 272.452C129.712 281.039 207.455 288 303.356 288Z" fill="#3F3D56"/>
<path opacity="0.3" d="M218.481 127.044L406.959 127.044V7.62939e-06L218.481 7.62939e-06L218.481 127.044Z" fill="#3F3D56"/>
<path d="M394.928 11.6402H339.12V72.1689H394.928V11.6402Z" fill="#F2F2F2"/>
<path d="M250.897 15.2985L304.7 15.2985V11.6401L250.897 11.6401V15.2985Z" fill="#F2F2F2"/>
<path d="M339.12 85.1393H358.168V81.481H339.12V85.1393Z" fill="#F2F2F2"/>
<path d="M339.789 91.7909H394.26V88.1325H339.789V91.7909Z" fill="#F2F2F2"/>
<path d="M239.869 28.6015L317.399 28.6015V24.9432L239.869 24.9432V28.6015Z" fill="#F2F2F2"/>
<path d="M239.869 38.9113L317.399 38.9113V35.253L239.869 35.253V38.9113Z" fill="#F2F2F2"/>
<path d="M239.869 49.2212L317.399 49.2212V45.5629L239.869 45.5629V49.2212Z" fill="#F2F2F2"/>
<path d="M239.869 59.531L317.399 59.531V55.8727L239.869 55.8727V59.531Z" fill="#F2F2F2"/>
<path d="M239.869 69.8409L317.399 69.8409V66.1825L239.869 66.1825V69.8409Z" fill="#F2F2F2"/>
<path d="M239.869 80.1507L317.399 80.1507V76.4924L239.869 76.4924V80.1507Z" fill="#F2F2F2"/>
<path d="M239.869 90.4606L317.399 90.4606V86.8022L239.869 86.8022V90.4606Z" fill="#F2F2F2"/>
<path d="M347.501 46.2033C348.327 45.6183 349.239 45.1634 350.204 44.8546C356.322 42.589 362.733 41.2001 369.244 40.7297C374.906 40.3301 381.042 40.8047 385.464 44.3458C386.152 44.8481 386.715 45.5007 387.109 46.2534C387.665 47.4482 387.497 48.837 387.317 50.1415C387.276 50.6475 387.148 51.1427 386.938 51.6052C386.343 52.7327 384.878 53.1277 383.605 52.9925C382.333 52.8573 381.139 52.3215 379.884 52.0731C379.107 51.9383 378.321 51.8587 377.533 51.8348L369.661 51.4107C364.766 51.1469 359.806 50.8876 355.004 51.8708C353.526 52.1352 352.098 52.6251 350.77 53.323C349.673 53.9358 348.935 54.8151 347.917 53.6833C346.129 51.6947 345.139 48.04 347.501 46.2033Z" fill="#2F2E41"/>
<path d="M359.7 49.6677C359.7 49.6677 370.288 44.944 374.304 50.3944C378.321 55.8448 372.114 53.6647 372.114 53.6647L365.177 55.8448L357.509 54.3914L359.7 49.6677Z" fill="#F2F2F2"/>
<path d="M360.248 46.2158C360.248 46.2158 361.708 53.1197 360.613 54.9364C359.517 56.7532 366.82 59.2968 366.82 59.2968L373.757 56.3899C373.757 56.3899 371.931 45.1258 373.757 42.9456L360.248 46.2158Z" fill="#FFB9B9"/>
<path opacity="0.1" d="M360.248 46.2158C360.248 46.2158 361.708 53.1197 360.613 54.9364C359.517 56.7532 366.82 59.2968 366.82 59.2968L373.757 56.3899C373.757 56.3899 371.931 45.1258 373.757 42.9456L360.248 46.2158Z" fill="black"/>
<path d="M377.043 39.312C377.04 42.2023 375.886 44.9736 373.832 47.0174C371.778 49.0612 368.994 50.2104 366.089 50.2128C365.437 50.2139 364.785 50.1555 364.143 50.0384C362.093 49.67 360.192 48.7274 358.661 47.3214C357.13 45.9154 356.034 44.1041 355.501 42.1C354.968 40.096 355.021 37.9822 355.652 36.0068C356.284 34.0313 357.468 32.276 359.067 30.9468C360.665 29.6176 362.612 28.7696 364.677 28.5023C366.743 28.2349 368.842 28.5593 370.729 29.4374C372.616 30.3155 374.212 31.7109 375.331 33.4599C376.449 35.2089 377.043 37.239 377.043 39.312Z" fill="#FFB9B9"/>
<path d="M383.656 72.5015H348.725L349.517 69.0793L352.945 54.2098L356.909 51.5459L356.912 51.5426L358.773 50.2888L359.699 49.6668C359.699 49.6668 360.247 49.9163 360.879 50.2555C361.062 50.3586 361.25 50.465 361.437 50.5781C361.44 50.5748 361.44 50.5781 361.44 50.5781C361.743 50.7532 362.031 50.9523 362.302 51.1734C362.352 51.22 362.396 51.2599 362.439 51.3031C363.134 51.9949 365.163 55.6665 368.518 53.7875C368.687 53.6948 368.851 53.5927 369.009 53.4815C369.884 52.8792 370.718 52.2204 371.506 51.5093C372.211 50.8674 372.669 50.3719 373.043 50.0293C373.211 49.8628 373.402 49.7216 373.611 49.6103C373.769 49.528 373.944 49.4857 374.122 49.4873C375.218 49.4873 376.679 51.6656 376.679 51.6656L376.722 51.792L376.726 51.802L381.334 65.5706L383.656 72.5015Z" fill="#F2F2F2"/>
<path d="M348.724 72.5015H359.311C359.335 71.2835 359.271 70.0654 359.121 68.8565C358.797 66.4253 358.001 64.084 357.5 61.6828C357.059 59.5786 356.845 57.4335 356.862 55.2841C356.865 54.9881 356.872 54.6888 356.899 54.3894C356.925 53.7041 357.124 53.0362 357.477 52.4472C357.727 52.0648 358.072 51.7388 358.339 51.373C358.432 51.2532 358.513 51.1252 358.583 50.9905V50.9872C358.616 50.9211 358.646 50.8534 358.673 50.7843C358.732 50.6253 358.766 50.4581 358.773 50.2888C358.833 49.1913 357.834 48.1337 356.755 47.6814C355.24 47.1153 353.582 47.0488 352.026 47.4918C350.484 47.9354 348.994 48.542 347.582 49.301C347.104 49.5338 346.629 49.7733 346.171 50.0394C345.625 50.3479 345.122 50.7282 344.678 51.1701C343.541 52.3375 343.043 53.9638 342.642 55.5368C342.26 56.7393 342.129 58.007 342.258 59.2617C342.261 59.3016 342.271 59.3448 342.278 59.3848C342.676 61.4567 344.373 63.0132 345.279 64.9221C346.328 67.1371 346.258 69.7179 345.841 72.1324C345.82 72.2554 345.797 72.3785 345.774 72.5015H348.724V72.5015Z" fill="#2F2E41"/>
<path d="M391.82 59.1951C390.492 63.5438 389.527 67.9944 388.936 72.5015H373.845C373.451 71.4306 373.057 70.3586 372.665 69.2855C372.352 68.4757 372.083 67.6497 371.86 66.8111C371.621 65.8361 371.507 64.8347 371.522 63.8312C371.522 63.5918 371.532 63.349 371.552 63.1096C371.554 63.1077 371.555 63.1053 371.555 63.1029C371.555 63.1004 371.554 63.0981 371.552 63.0962C371.644 61.8306 371.939 60.5877 372.425 59.4146C372.648 58.8813 372.904 58.3626 373.193 57.8615C373.895 56.5977 374.744 55.4071 375.499 54.1699C375.97 53.4139 376.38 52.6221 376.726 51.802C376.725 51.8002 376.725 51.7983 376.726 51.7966C376.727 51.7949 376.728 51.7933 376.729 51.792C377.18 50.7462 377.415 49.6209 377.421 48.4829C377.397 47.0162 374.904 44.4587 377.614 44.7048C381.314 45.0374 384.492 47.1559 387.389 49.5704C388.161 50.2156 388.916 50.8841 389.655 51.5426C390.798 52.5669 392.004 53.6843 392.348 55.1776C392.404 55.4157 392.436 55.6584 392.445 55.9026C392.425 57.0274 392.214 58.1407 391.82 59.1951Z" fill="#2F2E41"/>
<path d="M369.2 55.1842C368.82 54.1626 368.238 53.2276 367.487 52.4347C366.73 51.7977 365.834 51.3458 364.87 51.1151C363.621 50.76 362.329 50.5757 361.03 50.5674C359.484 50.5578 357.691 50.9706 357.034 52.3638C356.513 53.4702 356.917 54.7803 357.442 55.885C357.666 56.4573 358.04 56.9596 358.524 57.3402C359.191 57.7886 360.054 57.7744 360.844 57.9245C362.07 58.2342 363.231 58.7577 364.273 59.4707L366.981 61.0999L371.633 63.8983C371.51 63.8246 371.554 60.6498 371.411 60.1295C370.951 58.4534 369.915 56.7714 369.2 55.1842Z" fill="#FFB9B9"/>
<path d="M376.767 33.6311C376.572 32.9792 376.143 32.4216 375.561 32.0647C375.591 31.3664 375.505 30.6679 375.307 29.9975C374.643 28.0459 373.072 28.1578 371.589 27.2949C370.946 26.9206 370.986 26.5897 370.651 25.9748C370.212 25.1688 369.555 24.5014 368.754 24.0486C367.803 23.4455 366.799 22.8243 365.673 22.748C363.309 22.5876 361.495 24.8012 359.235 25.5116C358.239 25.8248 357.168 25.8377 356.167 26.1337C355.165 26.4297 354.166 27.1366 354.017 28.1656C353.948 28.6407 354.07 29.1281 354 29.6031C353.861 30.5471 353.029 31.2082 352.471 31.9846C351.239 33.7016 351.38 36.1273 352.366 37.9954C352.573 38.382 352.811 38.7519 353.076 39.1018C353.158 39.9848 353.413 40.8433 353.826 41.629C354.811 43.4972 356.506 44.8932 358.277 46.053C358.132 45.4334 358.044 44.802 358.015 44.1665C357.99 43.9547 358.017 43.7401 358.095 43.5414C358.293 43.1312 358.814 43.022 359.211 42.7973C360.034 42.3319 360.357 41.3019 360.38 40.3602C360.404 39.4185 360.204 38.4752 360.303 37.5384C360.307 37.3229 360.356 37.1107 360.447 36.9153C360.539 36.72 360.67 36.5458 360.833 36.4041C361.137 36.2317 361.484 36.1494 361.833 36.1669C363.519 36.0984 365.281 36.0676 366.769 35.274C367.248 34.957 367.764 34.6974 368.305 34.5007C369.569 34.1727 370.861 35.0544 371.589 36.1334C372.317 37.2125 372.681 38.4966 373.353 39.6113C374.025 40.726 375.186 41.7201 376.485 41.588C376.559 41.5882 376.631 41.573 376.698 41.5434C376.765 41.5138 376.825 41.4705 376.874 41.4163C376.93 41.3161 376.954 41.2016 376.945 41.0872L377.018 36.1438C377.078 35.2981 376.993 34.4484 376.767 33.6311Z" fill="#2F2E41"/>
<path d="M347.879 66.6449C348.116 68.5904 348.26 70.5426 348.31 72.5015H339.12V64.8157C339.167 64.6294 339.217 64.4465 339.277 64.2636C339.852 62.5009 341.058 61.0243 342.104 59.4911C342.155 59.4146 342.208 59.3381 342.258 59.2616C342.703 58.6149 343.086 57.9278 343.401 57.2097C343.551 56.8571 343.792 55.151 344.046 55.0047C345.135 54.3761 346.021 57.0633 346.171 57.662C346.706 59.7938 347.171 61.9456 347.522 64.1173C347.659 64.9587 347.778 65.8012 347.879 66.6449Z" fill="#2F2E41"/>
<path d="M394.32 72.5015H373.223C373.043 72.0791 372.866 71.6567 372.679 71.2377C371.363 68.2763 369.662 65.5 367.619 62.9799C367.282 62.6467 367.063 62.2137 366.994 61.746C366.987 61.5518 367.034 61.3594 367.131 61.1906C367.452 60.5953 368.301 60.246 368.989 59.9634C369.701 59.6783 370.355 59.2682 370.921 58.7528C371.421 58.3047 371.804 57.7419 372.037 57.1132C372.099 56.9288 372.146 56.7398 372.177 56.5479C372.274 56.6742 372.374 56.8039 372.471 56.9303C372.709 57.2429 372.949 57.5522 373.193 57.8615C375.532 60.8514 378.102 63.798 381.334 65.5706C382.178 66.0388 383.07 66.4167 383.994 66.6981C384.082 66.7368 384.178 66.7567 384.275 66.7567C384.371 66.7567 384.467 66.7368 384.555 66.6981C384.692 66.5867 384.779 66.4268 384.799 66.2524C385.087 65.0551 385.187 63.8213 385.397 62.6074C385.784 60.3988 386.528 58.2671 387.6 56.2951C388.198 55.1876 390.143 51.1402 391.376 53.691C391.73 54.426 392.087 55.1632 392.445 55.9027C392.669 56.3716 392.896 56.8372 393.124 57.3062C393.962 58.7938 394.345 60.4935 394.223 62.195C394.257 65.6338 394.289 69.0693 394.32 72.5015Z" fill="#2F2E41"/>
<path opacity="0.1" d="M348.725 72.5015H350.552L349.517 69.0793L348.023 64.1472C348.04 64.9822 347.992 65.8173 347.879 66.6448C347.654 68.3552 347.162 70.0203 346.422 71.5803C346.278 71.8829 346.125 72.1889 346.001 72.5015H348.725Z" fill="black"/>
<path opacity="0.1" d="M385.959 61.9843C385.702 62.6731 385.935 63.435 386.134 64.1429C386.709 66.1964 386.977 68.3229 386.93 70.4541C386.939 70.4914 386.938 70.5301 386.927 70.5669C386.917 70.6036 386.897 70.6371 386.87 70.6645C386.843 70.6918 386.81 70.7121 386.774 70.7234C386.737 70.7347 386.698 70.7368 386.66 70.7294C385.818 70.7808 384.853 70.7862 384.281 70.168L385.959 61.9843Z" fill="black"/>
<path opacity="0.3" d="M188.478 1.30763H0V128.352H188.478V1.30763Z" fill="#3F3D56"/>
<path d="M67.8386 12.9478H12.0305V73.4765H67.8386V12.9478Z" fill="#F2F2F2"/>
<path d="M156.062 12.9478H102.259V16.6061H156.062V12.9478Z" fill="#F2F2F2"/>
<path d="M31.7472 82.7886H12.6989V86.447H31.7472V82.7886Z" fill="#F2F2F2"/>
<path d="M67.1703 89.4402H12.6989V93.0985H67.1703V89.4402Z" fill="#F2F2F2"/>
<path d="M167.09 26.2508H89.5604V29.9091H167.09V26.2508Z" fill="#F2F2F2"/>
<path d="M167.09 36.5606H89.5604V40.219H167.09V36.5606Z" fill="#F2F2F2"/>
<path d="M167.09 46.8705H89.5604V50.5288H167.09V46.8705Z" fill="#F2F2F2"/>
<path d="M167.09 57.1803H89.5604V60.8387H167.09V57.1803Z" fill="#F2F2F2"/>
<path d="M167.09 67.4902H89.5604V71.1485H167.09V67.4902Z" fill="#F2F2F2"/>
<path d="M167.09 77.8H89.5604V81.4584H167.09V77.8Z" fill="#F2F2F2"/>
<path d="M167.09 88.1099H89.5604V91.7682H167.09V88.1099Z" fill="#F2F2F2"/>
<path d="M66.3214 73.8091H59.0664C58.5083 72.3159 58.0126 70.8037 57.5792 69.2728C57.2934 67.4727 56.4688 65.8002 55.2132 64.4737C54.8299 64.0484 54.4886 63.5873 54.194 63.0969C53.572 61.8892 53.3475 60.5174 53.5524 59.1758C53.5941 58.8024 53.6566 58.4315 53.7395 58.065C54.057 56.6449 54.5883 55.2813 55.0328 53.8978C55.1267 53.6169 55.2981 53.3678 55.5273 53.1791C55.7566 52.9903 56.0345 52.8694 56.3294 52.8302C56.8077 52.7505 57.2989 52.807 57.7463 52.9932C57.8453 53.0333 57.9404 53.0823 58.0304 53.1395C58.8224 53.6151 59.2334 54.5862 59.5643 55.4742C61.0781 59.5184 62.5908 63.5625 64.1025 67.6066C64.3965 68.3914 64.6906 69.1785 64.9847 69.9679C65.4191 71.1252 65.8502 72.2826 66.2178 73.4632C66.2546 73.5797 66.288 73.6927 66.3214 73.8091Z" fill="#D0CDE1"/>
<path d="M36.1187 20.5806C34.3149 21.1869 32.6807 22.6049 32.3113 24.4637C32.1401 25.3253 32.245 26.221 32.1009 27.0876C31.7668 29.0972 30.1816 30.6321 28.7196 32.0577C27.2575 33.4833 25.7477 35.1398 25.641 37.1741C25.5242 39.4016 27.1475 41.4885 26.8666 43.7015C26.5402 46.2725 23.8115 47.9385 23.137 50.4415C22.6866 52.1129 23.2385 53.9133 24.1466 55.3891C25.877 58.2012 28.8348 60.1104 31.9846 61.1339C35.1344 62.1573 38.4891 62.3726 41.8023 62.4072C45.8366 62.4492 50.2168 62.1046 53.248 59.4548C54.9794 57.9276 56.0668 55.8055 56.292 53.514C56.58 50.4446 55.2927 47.2731 56.1807 44.3197C56.7395 42.461 58.1408 40.7635 57.9317 38.8345C57.7272 36.9485 56.0721 35.6117 54.9366 34.0881C53.8764 32.6655 53.2331 30.9855 52.6026 29.3293L50.4453 23.6623C50.0212 22.5482 49.5555 21.3766 48.6104 20.6454C46.8411 19.2766 43.9962 19.5455 41.9273 19.8278C40.008 20.0897 37.9645 19.9603 36.1187 20.5806Z" fill="#2F2E41"/>
<path d="M37.7875 39.2567C37.7875 39.2567 37.9986 45.5609 37.3652 46.1913C36.7317 46.8217 39.8991 51.0246 39.8991 51.0246L45.6002 50.8144L48.5564 48.5029L46.0225 45.1406C46.0225 45.1406 44.9668 39.677 45.8114 38.4161C46.656 37.1553 37.7875 39.2567 37.7875 39.2567Z" fill="#A0616A"/>
<path opacity="0.1" d="M37.7875 39.2567C37.7875 39.2567 37.9986 45.5609 37.3652 46.1913C36.7317 46.8217 39.8991 51.0246 39.8991 51.0246L45.6002 50.8144L48.5564 48.5029L46.0225 45.1406C46.0225 45.1406 44.9668 39.677 45.8114 38.4161C46.656 37.1553 37.7875 39.2567 37.7875 39.2567Z" fill="black"/>
<path d="M41.2716 41.6733C45.4698 41.6733 48.8731 38.2863 48.8731 34.1082C48.8731 29.9301 45.4698 26.5431 41.2716 26.5431C37.0733 26.5431 33.67 29.9301 33.67 34.1082C33.67 38.2863 37.0733 41.6733 41.2716 41.6733Z" fill="#A0616A"/>
<path d="M45.1678 73.8091H51.3301C51.5607 73.3934 51.7779 72.9611 52.0286 72.5686V72.5653C52.3025 72.0907 52.6878 71.6891 53.1514 71.3946C53.4462 71.2603 53.7252 71.0941 53.9835 70.8991C54.2307 70.6323 54.4055 70.3072 54.4915 69.9546C54.9159 68.635 55.1499 67.2622 55.1866 65.8772C55.1966 65.4116 55.1866 64.9393 55.2133 64.4737C55.2265 64.1099 55.2735 63.7481 55.3537 63.3929C55.5652 62.6706 55.8719 61.9795 56.266 61.3375C57.1014 59.8243 57.9391 58.3111 58.779 56.7979C58.9304 56.3716 58.9885 55.918 58.9494 55.4676C58.9314 54.8599 58.7439 54.2692 58.4081 53.7615C58.2911 53.5519 58.1641 53.3424 58.0304 53.1396C57.5149 52.321 56.9146 51.5586 56.2392 50.8647C54.8063 49.3692 53.0672 48.1976 51.1396 47.4292C50.8978 47.3482 50.6675 47.2364 50.4545 47.0966C50.2032 46.8853 49.9906 46.6321 49.8263 46.3484C49.1579 45.3473 48.3425 44.2199 47.1361 44.2831C46.9398 44.185 46.7258 44.1269 46.5066 44.112C46.2874 44.0972 46.0675 44.1259 45.8596 44.1966C45.7961 44.2131 45.7336 44.233 45.6724 44.2565C45.2114 44.4596 44.7638 44.6918 44.3324 44.9515C43.2225 45.5249 41.9648 45.7521 40.7232 45.6034C40.5776 45.5932 40.435 45.5572 40.3022 45.497C40.1612 45.408 40.0311 45.3031 39.9145 45.1844C39.6095 44.9358 39.2438 44.7722 38.8545 44.7103C38.4653 44.6484 38.0665 44.6903 37.6989 44.8318C37.3537 44.9542 37.0486 45.1681 36.8167 45.4504C36.5961 45.7265 36.4424 46.059 36.1984 46.3184C35.5668 46.9902 34.5242 47.0168 33.6018 47.0135C31.6862 46.9603 29.7711 47.1356 27.8974 47.5357C26.2518 47.899 24.7139 48.6392 23.406 49.6974L23.4027 49.7007C23.2222 49.8537 23.0551 50.01 22.888 50.1763C22.5079 50.5326 22.2054 50.9627 21.9991 51.4401C21.7451 52.0919 21.7785 52.8269 21.548 53.4888C21.294 54.2304 20.7292 54.8357 20.502 55.5807C20.3282 56.146 20.3516 56.7713 20.0642 57.2834C20.0776 57.2934 20.0876 57.3034 20.101 57.3134C21.3174 58.3776 22.3567 59.7744 23.5764 60.8287C24.2843 61.3654 24.8832 62.0314 25.3409 62.7909C25.429 62.9616 25.5017 63.1396 25.5581 63.323C25.6953 63.9588 25.7559 64.6086 25.7386 65.2586C25.8923 68.3682 27.5866 71.1885 29.4814 73.6628C29.5182 73.7127 29.5549 73.7626 29.595 73.8091L45.1678 73.8091Z" fill="#D0CDE1"/>
<path d="M25.3409 62.7909C25.0535 64.7763 24.7639 66.7607 24.472 68.744C24.3393 69.8061 24.1407 70.8591 23.8772 71.8968C23.7034 72.5386 23.4795 73.1673 23.3225 73.8091H14.6204C14.6248 73.4496 14.6527 73.0908 14.704 72.7349C14.928 71.4564 15.2922 70.2062 15.79 69.0067C16.8026 66.2862 17.8141 63.5636 18.8244 60.8387C19.2555 59.678 19.6264 58.4641 20.101 57.3133C20.1845 57.1005 20.2747 56.8877 20.3717 56.6815C20.8763 55.5773 22.2765 56.0296 23.3124 56.1959C23.5969 56.2311 23.8741 56.3096 24.1345 56.4287C24.4494 56.6013 24.7151 56.8508 24.9065 57.1537C25.889 58.6004 25.6751 60.5127 25.4211 62.2421C25.3944 62.4251 25.3676 62.608 25.3409 62.7909Z" fill="#D0CDE1"/>
<path d="M52.0285 72.5686C52.0419 72.6152 52.1856 73.1107 52.4229 73.8091H45.1678C48.7636 73.1939 52.0285 72.5653 52.0285 72.5653V72.5686Z" fill="#2F2E41"/>
<path d="M41.905 34.1082C46.4531 34.1082 50.1401 32.1325 50.1401 29.6952C50.1401 27.258 46.4531 25.2823 41.905 25.2823C37.3569 25.2823 33.67 27.258 33.67 29.6952C33.67 32.1325 37.3569 34.1082 41.905 34.1082Z" fill="#2F2E41"/>
<path d="M309.22 48.0768H120.742V175.121H309.22V48.0768Z" fill="#3F3D56"/>
<path opacity="0.1" d="M281.817 166.474C293.999 166.474 303.873 165.431 303.873 164.146C303.873 162.86 293.999 161.818 281.817 161.818C269.636 161.818 259.761 162.86 259.761 164.146C259.761 165.431 269.636 166.474 281.817 166.474Z" fill="black"/>
<path d="M188.581 59.717H132.773V120.246H188.581V59.717Z" fill="#F2F2F2"/>
<path d="M150.744 87.5077C150.925 87.5625 151.12 87.5532 151.295 87.4812C151.47 87.4092 151.614 87.279 151.704 87.1129C152.476 85.9025 151.055 84.3419 151.362 82.9415C151.609 81.8195 152.89 81.1536 153.152 80.0351C153.406 78.9483 152.622 77.7233 153.152 76.7399C153.567 75.9695 154.605 75.7668 155.473 75.9017C156.341 76.0367 157.165 76.4164 158.041 76.4696C159.21 76.5405 160.324 76.0286 161.466 75.775C162.609 75.5214 164.002 75.6207 164.674 76.5745C165.537 77.7992 164.662 79.5046 164.962 80.9702C165.201 82.134 166.18 83.0977 166.201 84.2853C166.209 84.7074 165.094 84.3674 165.153 84.7854C165.212 85.2034 164.685 84.8354 165.106 84.7857C165.278 84.7438 165.432 84.6485 165.546 84.5135C165.66 84.3786 165.728 84.2111 165.74 84.0353C165.79 83.6871 166.448 83.571 166.44 83.2193C166.422 82.3952 167.92 82.9509 168.166 82.1639C168.733 80.3293 168.617 78.3528 167.839 76.5967C167.437 75.8793 167.117 75.12 166.883 74.3326C166.664 73.2399 167.01 72.0668 166.647 71.0124C166.158 69.5915 164.54 68.8672 163.038 68.7201C161.537 68.573 160.01 68.8363 158.517 68.6194C157.179 68.425 155.884 67.8481 154.535 67.9317C152.916 68.032 151.507 69.0701 150.385 70.2358C149.262 71.4015 148.31 72.7422 147.036 73.7408C146.645 74.008 146.285 74.3165 145.962 74.6608C145.313 75.4481 145.247 76.5697 145.427 77.5722C145.608 78.5747 146.001 79.531 146.167 80.536C146.323 81.4805 146.275 82.4454 146.342 83.4002C146.358 84.3632 146.651 85.3016 147.186 86.1039C147.417 86.4164 147.717 86.6723 148.063 86.8521C148.409 87.0319 148.791 87.1307 149.181 87.1412C149.451 87.1474 149.679 86.9058 149.952 86.9688C150.293 87.0476 150.441 87.3697 150.744 87.5077Z" fill="#2F2E41"/>
<path d="M138.471 120.578C138.715 117.249 138.898 114.762 138.898 114.762L140.476 110.624L145.539 120.578L138.471 120.578Z" fill="#575A89"/>
<path opacity="0.1" d="M138.471 120.578C138.715 117.249 138.898 114.762 138.898 114.762L140.476 110.624L145.539 120.578L138.471 120.578Z" fill="black"/>
<path d="M150.203 87.8464C150.203 87.8464 154.924 99.8053 152.206 102.083C149.488 104.361 167.37 98.2393 167.37 98.2393L166.941 96.6732C166.941 96.6732 161.076 94.3953 163.937 87.8464C166.798 81.2974 150.203 87.8464 150.203 87.8464Z" fill="#A0616A"/>
<path opacity="0.1" d="M150.203 87.8464C150.203 87.8464 154.924 99.8053 152.206 102.083C149.488 104.361 167.37 98.2393 167.37 98.2393L166.941 96.6732C166.941 96.6732 161.076 94.3953 163.937 87.8464C166.798 81.2974 150.203 87.8464 150.203 87.8464Z" fill="black"/>
<path d="M156.927 92.6869C162.458 92.6869 166.941 88.2251 166.941 82.7211C166.941 77.2171 162.458 72.7552 156.927 72.7552C151.397 72.7552 146.913 77.2171 146.913 82.7211C146.913 88.2251 151.397 92.6869 156.927 92.6869Z" fill="#A0616A"/>
<path d="M181.246 104.219C181.246 104.219 181.206 105.01 181.136 106.394C180.992 109.211 180.734 114.489 180.477 120.578H141.659C140.644 119.226 139.814 117.747 139.189 116.178C139.02 115.724 138.922 115.246 138.898 114.762C138.685 110.987 142.083 105.719 144.483 105.217C147.199 104.645 152.349 99.2369 152.349 99.2369C152.366 99.4428 152.434 99.6411 152.549 99.8133C152.664 99.9855 152.82 100.126 153.004 100.221V100.225C153.419 100.438 153.884 100.539 154.351 100.517C156.029 100.517 163.407 97.1284 165.777 96.021C166.241 95.8048 166.512 95.6751 166.512 95.6751C169.244 96.8487 172.067 97.8018 174.953 98.5253C176.393 98.8827 177.722 99.5899 178.82 100.584C179.918 101.577 180.752 102.826 181.246 104.219Z" fill="#575A89"/>
<path d="M149.027 86.5112C149.208 86.566 149.403 86.5566 149.578 86.4846C149.753 86.4126 149.898 86.2825 149.987 86.1163C150.759 84.906 149.338 83.3453 149.646 81.9449C149.892 80.8229 151.173 80.157 151.435 79.0385C151.69 77.9518 150.906 76.7267 151.436 75.7434C151.851 74.9729 152.888 74.7702 153.756 74.9052C154.624 75.0401 155.448 75.4199 156.325 75.4731C157.493 75.544 158.607 75.0321 159.749 74.7785C160.892 74.5248 162.286 74.6241 162.958 75.5779C163.821 76.8026 162.945 78.508 163.246 79.9736C163.484 81.1375 166.203 81.9543 166.45 81.1674C167.017 79.3328 166.9 77.3563 166.122 75.6002C165.721 74.8828 165.401 74.1235 165.167 73.3361C164.947 72.2433 165.293 71.0702 164.93 70.0159C164.441 68.595 162.824 67.8706 161.322 67.7235C159.82 67.5764 158.294 67.8398 156.8 67.6228C155.463 67.4285 154.168 66.8515 152.818 66.9351C151.199 67.0354 149.79 68.0736 148.668 69.2392C147.546 70.4049 146.594 71.7456 145.319 72.7442C144.929 73.0114 144.569 73.3199 144.245 73.6642C143.596 74.4515 143.53 75.5731 143.711 76.5757C143.891 77.5782 144.284 78.5344 144.45 79.5394C144.606 80.4839 144.558 81.4489 144.625 82.4037C144.641 83.3667 144.934 84.305 145.469 85.1073C145.701 85.4199 146.001 85.6758 146.346 85.8555C146.692 86.0353 147.075 86.1342 147.464 86.1446C147.735 86.1509 147.963 85.9093 148.235 85.9723C148.576 86.051 148.725 86.3731 149.027 86.5112Z" fill="#2F2E41"/>
<path opacity="0.1" d="M186.208 120.578H174.88C174.017 114.286 173.306 107.708 173.306 107.708L175.595 106.71L180.247 104.219C180.247 104.219 180.587 105.024 181.136 106.394C182.305 109.324 184.427 114.838 186.208 120.578Z" fill="black"/>
<path d="M187.208 120.578H174.422C172.527 113.694 170.659 106.211 170.659 106.211L175.525 102.652L181.246 104.219C181.246 104.219 184.594 112.151 187.208 120.578Z" fill="#575A89"/>
<path d="M276.805 59.717H223.002V63.3753H276.805V59.717Z" fill="#0371C0"/>
<path d="M152.49 129.558H133.441V133.216H152.49V129.558Z" fill="#0371C0"/>
<path d="M187.913 136.209H133.441V139.868H187.913V136.209Z" fill="#0371C0"/>
<path d="M287.833 73.02H210.303V76.6784H287.833V73.02Z" fill="#F2F2F2"/>
<path d="M287.833 83.3298H210.303V86.9882H287.833V83.3298Z" fill="#F2F2F2"/>
<path d="M287.833 93.6397H210.303V97.298H287.833V93.6397Z" fill="#F2F2F2"/>
<path d="M287.833 103.95H210.303V107.608H287.833V103.95Z" fill="#F2F2F2"/>
<path d="M287.833 114.259H210.303V117.918H287.833V114.259Z" fill="#F2F2F2"/>
<path d="M287.833 124.569H210.303V128.228H287.833V124.569Z" fill="#F2F2F2"/>
<path d="M287.833 134.879H210.303V138.537H287.833V134.879Z" fill="#F2F2F2"/>
<path d="M302.776 135.373L281.583 156.465L272.675 147.6C272.392 147.319 272.057 147.095 271.687 146.943C271.318 146.791 270.922 146.713 270.522 146.713C270.122 146.713 269.726 146.791 269.357 146.943C268.987 147.095 268.651 147.319 268.369 147.6L268.049 147.124C266.86 148.307 267.18 150.702 268.369 151.886L279.926 163.388C280.362 163.821 280.953 164.065 281.569 164.065C282.185 164.065 282.776 163.822 283.211 163.389L307.081 139.659C308.27 138.476 308.702 136.307 307.513 135.123C306.324 133.94 303.965 134.19 302.776 135.373Z" fill="#57B894"/>
<path opacity="0.1" d="M302.776 135.373L281.583 156.465L272.675 147.6C272.392 147.319 272.057 147.095 271.687 146.943C271.318 146.791 270.922 146.713 270.522 146.713C270.122 146.713 269.726 146.791 269.357 146.943C268.987 147.095 268.651 147.319 268.369 147.6L268.049 147.124C266.86 148.307 267.18 150.702 268.369 151.886L279.926 163.388C280.362 163.821 280.953 164.065 281.569 164.065C282.185 164.065 282.776 163.822 283.211 163.389L307.081 139.659C308.27 138.476 308.702 136.307 307.513 135.123C306.324 133.94 303.965 134.19 302.776 135.373Z" fill="black"/>
<path d="M302.776 134.438L281.583 155.53L272.675 146.665C272.392 146.384 272.057 146.16 271.687 146.008C271.318 145.856 270.922 145.777 270.522 145.777C270.122 145.777 269.726 145.856 269.357 146.008C268.987 146.16 268.651 146.384 268.369 146.665C268.086 146.946 267.862 147.28 267.709 147.648C267.556 148.016 267.477 148.41 267.477 148.808C267.477 149.206 267.556 149.6 267.709 149.968C267.862 150.335 268.086 150.669 268.369 150.951L279.926 162.453C280.362 162.886 280.953 163.13 281.569 163.13C282.185 163.13 282.776 162.887 283.211 162.454L307.08 138.724C307.363 138.443 307.588 138.109 307.741 137.741C307.894 137.373 307.973 136.979 307.973 136.581C307.973 136.183 307.895 135.789 307.742 135.421C307.589 135.054 307.364 134.72 307.082 134.438C306.511 133.87 305.736 133.551 304.929 133.551C304.122 133.551 303.347 133.87 302.776 134.438Z" fill="#57B894"/>
<path opacity="0.1" d="M458.698 256.603C458.698 280.384 425.389 273.028 384.606 273.028C343.822 273.028 311.008 280.384 311.008 256.603C311.008 232.821 344.313 227.648 385.096 227.648C425.88 227.648 458.698 232.821 458.698 256.603Z" fill="black"/>
<path d="M458.698 252.16C458.698 275.942 425.389 268.586 384.606 268.586C343.822 268.586 311.008 275.942 311.008 252.16C311.008 228.378 344.313 223.206 385.096 223.206C425.88 223.206 458.698 228.378 458.698 252.16Z" fill="#3F3D56"/>
<path d="M319.458 177.657L317.948 179.401C317.948 179.401 299.597 181.116 300.342 184.08C301.086 187.045 322.437 180.127 322.437 180.127L319.458 177.657Z" fill="#FFC1C7"/>
<path d="M352.725 176.174C352.725 176.174 333.112 183.092 322.437 180.127L327.402 190.01C327.402 190.01 352.725 189.269 357.193 184.822C361.662 180.374 352.725 176.174 352.725 176.174Z" fill="#0371C0"/>
<path opacity="0.1" d="M352.725 176.174C352.725 176.174 333.112 183.092 322.437 180.127L327.402 190.01C327.402 190.01 352.725 189.269 357.193 184.822C361.662 180.374 352.725 176.174 352.725 176.174Z" fill="black"/>
<path d="M339.443 123.178C346.71 123.178 352.6 117.315 352.6 110.083C352.6 102.851 346.71 96.9886 339.443 96.9886C332.176 96.9886 326.285 102.851 326.285 110.083C326.285 117.315 332.176 123.178 339.443 123.178Z" fill="#FFC1C7"/>
<path d="M350.662 122.377C351.115 123.237 351.689 124.029 352.367 124.728C354.169 126.68 356.32 128.281 358.709 129.452C351.241 130.962 343.698 132.078 336.111 132.796C336.912 129.989 335.858 126.986 334.441 124.431C333.024 121.876 331.218 119.495 330.331 116.713L339.224 116.951C340.838 116.995 342.457 117.043 344.07 116.964C345.276 116.905 347.285 116.186 348.41 116.451C350.79 117.011 349.623 120.276 350.662 122.377Z" fill="#FFC1C7"/>
<path d="M380.53 183.833L387.978 192.728C387.978 192.728 400.391 221.635 373.33 224.6C346.27 227.564 326.161 222.376 326.161 222.376C326.161 222.376 315.237 217.188 314.989 221.141C314.741 225.094 313.748 236.212 307.789 247.083L302.576 258.942C302.576 258.942 299.845 261.66 300.59 265.366C301.335 269.072 283.956 270.307 284.205 265.366C284.205 265.366 286.687 261.166 286.687 258.695C286.687 256.224 290.659 250.295 290.659 250.295L297.859 214.717C297.859 214.717 297.362 196.434 314.244 199.893C331.126 203.352 355.207 199.152 355.207 199.152L360.669 180.127L380.53 183.833Z" fill="#2F2E41"/>
<path opacity="0.1" d="M380.53 183.833L387.978 192.728C387.978 192.728 400.391 221.635 373.33 224.6C346.27 227.564 326.161 222.376 326.161 222.376C326.161 222.376 315.237 217.188 314.989 221.141C314.741 225.094 313.748 236.212 307.789 247.083L302.576 258.942C302.576 258.942 299.845 261.66 300.59 265.366C301.335 269.072 283.956 270.307 284.205 265.366C284.205 265.366 286.687 261.166 286.687 258.695C286.687 256.224 290.659 250.295 290.659 250.295L297.859 214.717C297.859 214.717 297.362 196.434 314.244 199.893C331.126 203.352 355.207 199.152 355.207 199.152L360.669 180.127L380.53 183.833Z" fill="black"/>
<path d="M352.6 183.183C352.6 183.183 375.316 174.692 387.978 192.728C387.978 192.728 391.205 220.647 378.295 221.882C365.386 223.117 348.504 222.87 344.532 218.67C340.56 214.47 315.485 202.61 315.485 202.61C315.485 202.61 303.004 196.275 300.556 204.507C298.107 212.74 297.859 214.717 297.859 214.717C297.859 214.717 284.949 224.105 279.736 225.835C279.736 225.835 276.26 230.776 274.274 230.776C272.288 230.776 260.123 233.494 261.365 224.353L281.474 206.069L301.583 186.551C301.583 186.551 307.293 178.151 321.94 182.598C331.661 185.477 341.521 187.868 351.483 189.763L352.6 183.183Z" fill="#2F2E41"/>
<path d="M299.845 264.872C299.845 264.872 304.562 276.731 300.59 278.213C296.618 279.696 288.177 278.708 288.177 278.708C288.177 278.708 278.246 277.472 275.764 277.719C273.281 277.966 263.102 275.99 264.592 272.037C266.082 268.084 273.778 269.072 273.778 269.072L280.729 265.86C280.729 265.86 281.474 263.389 283.212 264.378C284.949 265.366 289.915 269.072 299.845 264.872Z" fill="#CBCEDA"/>
<path d="M274.026 229.788C274.026 229.788 279.239 241.4 270.798 240.412C262.358 239.424 255.903 237.694 253.42 237.447C251.032 237.21 244.28 234.914 245.315 230.342C245.371 230.046 245.394 229.745 245.383 229.444C245.383 228.831 246.221 227.626 252.924 227.812C252.924 227.812 257.889 227.812 259.875 224.353C259.875 224.353 267.323 233.741 274.026 229.788Z" fill="#CBCEDA"/>
<path d="M330.381 130.961C330.381 130.961 348.256 119.842 363.152 130.961C378.047 142.079 387.978 192.728 387.978 192.728L353.469 185.069C353.469 185.069 351.98 179.139 349.994 178.151C348.008 177.162 347.759 172.962 347.759 172.962C347.759 172.962 337.084 169.75 337.829 157.397C338.574 145.043 330.381 130.961 330.381 130.961Z" fill="#0371C0"/>
<path d="M339.567 131.455H330.381C330.381 131.455 324.919 137.631 324.175 153.197L321.195 165.55C321.195 165.55 314.989 180.374 318.713 182.845C322.437 185.316 329.636 185.069 331.126 180.127C332.615 175.186 342.794 146.526 342.794 146.526L339.567 131.455Z" fill="#0371C0"/>
<path d="M336.934 93.0417C339.212 92.1122 341.703 91.83 344.133 92.2263C346.562 92.6227 348.832 93.682 350.692 95.2866C355.46 99.5211 356.422 106.429 357.627 112.674C358.833 118.92 361.257 125.875 367.172 128.283C364.506 128.637 361.8 128.559 359.159 128.051L368.097 136.022L353.041 131.138C348.315 129.605 343.352 128.053 338.459 128.919C330.352 130.353 324.708 137.937 316.922 140.602L317.787 136.4L312.563 136.36C313.814 135.439 314.838 134.245 315.556 132.87C315.31 132.573 315.006 132.327 314.663 132.149C314.32 131.97 313.944 131.861 313.558 131.83C311.38 118.312 319.446 104.95 329.957 96.1185C332.025 94.3814 334.312 92.7129 336.983 92.2784C339.653 91.8439 342.77 93.0322 343.699 95.5614" fill="#2F2E41"/>
<path d="M109.136 216.927C109.136 245.365 127.063 268.377 149.217 268.377L109.136 216.927Z" fill="#3F3D56"/>
<path d="M149.217 268.377C149.217 239.619 169.222 216.348 193.945 216.348L149.217 268.377Z" fill="#0371C0"/>
<path d="M123.658 219.505C123.658 246.518 135.09 268.377 149.217 268.377L123.658 219.505Z" fill="#0371C0"/>
<path d="M149.217 268.377C149.217 231.631 172.34 201.896 200.916 201.896L149.217 268.377Z" fill="#3F3D56"/>
<path d="M140.785 268.74C140.785 268.74 146.469 268.566 148.182 267.352C149.895 266.138 156.926 264.688 157.351 266.635C157.776 268.582 165.893 276.319 159.476 276.37C153.058 276.422 144.565 275.375 142.855 274.339C141.145 273.302 140.785 268.74 140.785 268.74Z" fill="#A8A8A8"/>
<path opacity="0.2" d="M159.59 275.692C153.173 275.744 144.679 274.698 142.969 273.661C141.667 272.872 141.148 270.039 140.975 268.733C140.855 268.738 140.785 268.74 140.785 268.74C140.785 268.74 141.145 273.302 142.855 274.339C144.565 275.375 153.058 276.422 159.476 276.37C161.328 276.355 161.968 275.699 161.933 274.728C161.676 275.315 160.969 275.681 159.59 275.692Z" fill="black"/>
</svg>
