<svg width="37" height="33" viewBox="0 0 37 33" fill="none" xmlns="http://www.w3.org/2000/svg">
<path opacity="0.9" d="M18.6655 7.59786L18.6655 7.5979L18.6655 7.59797L19.0532 8.19883L18.6655 7.59786ZM18.6655 7.59786L18.6653 7.59765L18.6646 7.5966L18.66 7.58945L18.6387 7.5576C18.6193 7.52881 18.5894 7.48528 18.5496 7.42901C18.4698 7.31643 18.3501 7.15308 18.1932 6.95486C17.8791 6.55781 17.4186 6.02407 16.8351 5.4789C15.6586 4.37976 14.0315 3.28012 12.1316 3.09129L12.1268 3.09082L12.1268 3.0908C7.17755 2.55103 3.46738 6.06616 3.07167 10.0264L3.07057 10.0374L3.06899 10.0484C2.78512 12.0095 3.34519 13.9485 4.28213 15.7638C5.21859 17.5782 6.50934 19.2271 7.6355 20.6006C10.7519 24.2823 15.2898 27.9982 18.2251 29.7703C21.1458 28.0976 26.1373 24.8656 29.5229 21.5951L29.5314 21.5869L29.5315 21.587C32.157 19.1686 35.1741 15.6606 35.047 11.5917C34.9209 7.55202 31.7181 3.90473 26.486 3.85831L26.4824 3.85828C24.463 3.8257 22.7205 4.74731 21.4593 5.71312C20.8322 6.19333 20.3349 6.67633 19.995 7.03874C19.8253 7.21966 19.6955 7.36976 19.6092 7.47335C19.566 7.52513 19.5337 7.56523 19.5128 7.59168L19.4899 7.62084L19.485 7.62727L19.4844 7.62801L19.4843 7.62823L19.4842 7.62836L18.6655 7.59786Z" stroke="#B5B3B3"/>
</svg>
