<svg width="416" height="251" viewBox="0 0 416 251" fill="none" xmlns="http://www.w3.org/2000/svg">
<g clip-path="url(#clip0)">
<path d="M27.2786 183.52L24.7805 173.665C20.351 171.787 15.8191 170.161 11.2065 168.794L10.8911 173.374L9.61204 168.328C3.89162 166.694 1.52588e-05 165.975 1.52588e-05 165.975C1.52588e-05 165.975 5.25667 185.968 16.2821 201.253L29.1292 203.511L19.1487 204.95C20.5361 206.619 22.0272 208.2 23.6131 209.682C39.652 224.572 57.5164 231.404 63.5143 224.941C69.5121 218.478 61.3722 201.168 45.3333 186.277C40.3611 181.661 34.1149 177.957 27.8625 175.041L27.2786 183.52Z" fill="#E6E6E6"/>
<path d="M51.0376 172.817L53.9921 163.09C51.1706 159.192 48.1315 155.457 44.8894 151.902L42.2524 155.66L43.7652 150.679C39.7126 146.323 36.7531 143.695 36.7531 143.695C36.7531 143.695 30.9205 163.528 32.4594 182.313L42.2906 190.887L33.003 186.959C33.328 189.106 33.7876 191.23 34.3792 193.318C40.4139 214.358 52.1759 229.442 60.6504 227.01C69.1249 224.578 71.1028 205.552 65.0682 184.512C63.1974 177.99 59.7648 171.589 55.9192 165.861L51.0376 172.817Z" fill="#E6E6E6"/>
<path d="M416 228.474H0.0373383V229.524H416V228.474Z" fill="#3F3D56"/>
<path d="M65.7567 119.76C65.7567 119.76 62.5174 158.717 61.8219 167.064C61.345 172.297 60.1756 177.444 58.3443 182.369C58.3443 182.369 56.9533 185.151 56.9533 187.934V223.412C56.9533 223.412 54.1713 223.412 54.8668 226.194C55.5623 228.977 56.2578 233.846 56.2578 233.846H66.6904C66.6904 233.846 65.9949 231.759 68.0814 231.064C70.1679 230.368 68.0814 224.803 68.0814 224.803L79.2095 183.064L95.9016 148.282C95.9016 148.282 105.639 179.586 107.725 183.064C107.725 183.064 115.376 222.02 116.767 225.499C118.158 228.977 118.853 228.977 118.158 230.368C117.462 231.759 117.462 233.151 118.158 233.846C118.853 234.542 132.068 233.846 132.068 233.846L128.59 184.455L122.331 125.326L90.3376 115.587L65.7567 119.76Z" fill="#2F2E41"/>
<path d="M63.9084 228.281C63.9084 228.281 60.4309 215.759 54.8668 225.498C49.3028 235.237 49.3028 238.716 49.3028 238.716C49.3028 238.716 40.2612 251.933 52.7803 250.542C65.2994 249.15 62.5174 242.89 62.5174 242.89C62.5174 242.89 67.3859 240.107 67.3859 238.02C67.3859 235.933 63.9084 228.281 63.9084 228.281Z" fill="#2F2E41"/>
<path d="M120.244 226.89C120.244 226.89 123.722 214.368 129.286 224.107C134.85 233.846 134.85 237.325 134.85 237.325C134.85 237.325 143.891 250.542 131.372 249.151C118.853 247.759 121.635 241.498 121.635 241.498C121.635 241.498 116.767 238.716 116.767 236.629C116.767 234.542 120.244 226.89 120.244 226.89Z" fill="#2F2E41"/>
<path d="M87.5556 25.8486C87.5556 25.8486 88.9466 34.892 84.7736 36.9789C80.6005 39.0659 93.8151 46.718 97.2927 46.718C100.77 46.718 107.03 39.7615 107.03 39.7615C107.03 39.7615 103.552 29.3269 104.248 27.2399L87.5556 25.8486Z" fill="#A0616A"/>
<path d="M95.2061 32.805C103.273 32.805 109.812 26.2645 109.812 18.1964C109.812 10.1284 103.273 3.58789 95.2061 3.58789C87.1397 3.58789 80.6006 10.1284 80.6006 18.1964C80.6006 26.2645 87.1397 32.805 95.2061 32.805Z" fill="#A0616A"/>
<path d="M123.722 48.1092L106.335 37.5728C106.335 37.5728 96.4421 48.8048 85.7393 36.2832L67.386 41.1527L70.168 88.4565C70.168 88.4565 65.9949 107.239 67.386 110.717C68.777 114.195 63.9084 115.587 65.2994 116.282C66.6904 116.978 65.2994 121.847 65.2994 121.847C65.2994 121.847 92.4241 135.76 122.331 125.326L119.549 116.282C119.927 115.1 119.998 113.841 119.755 112.624C119.512 111.406 118.962 110.271 118.158 109.326C118.158 109.326 120.94 105.152 117.462 101.674C117.462 101.674 118.853 95.413 115.376 92.6304L114.68 82.8914L116.767 78.0219L123.722 48.1092Z" fill="#CFCCE0"/>
<path d="M87.7314 11.4133C87.7314 11.4133 85.9901 15.1824 92.9552 13.6747C92.9552 13.6747 95.5672 15.1824 95.5672 12.9209C95.5672 12.9209 99.0497 16.69 99.9204 14.4286C100.791 12.1671 102.532 15.1824 102.532 15.1824L104.274 11.4133L106.015 13.6747H112.109C112.109 13.6747 113.851 -1.40166 92.9552 0.10598C72.0598 1.61362 82.3393 25.5007 82.3393 25.5007C82.3393 25.5007 82.5075 21.2129 84.2488 23.4744C85.9901 25.7359 87.7314 11.4133 87.7314 11.4133Z" fill="#2F2E41"/>
<path d="M129.981 75.9351L130.677 90.5436C130.677 90.5436 133.459 117.674 127.895 129.5V135.76C127.895 135.76 126.504 151.76 119.549 151.065C112.594 150.369 121.635 128.108 121.635 128.108L120.244 97.5L118.853 80.1089L129.981 75.9351Z" fill="#A0616A"/>
<path d="M116.071 48.8049L123.009 47.6775C128.007 52.4805 131.412 58.7012 132.763 65.5004C134.85 76.6307 135.545 78.7176 135.545 78.7176L118.853 82.8915L109.812 65.5004L116.071 48.8049Z" fill="#CFCCE0"/>
<path d="M195.955 40.8657H86.1982V95.3989H195.955V40.8657Z" fill="white"/>
<path d="M98.1831 44.1454C95.3633 42.4493 91.9633 42.5789 90.6708 42.7084C91.163 43.9104 92.6399 46.9763 95.4597 48.6732C98.2863 50.3735 101.682 50.2401 102.972 50.1114C102.48 48.9099 101.003 45.8427 98.1831 44.1454Z" fill="#0371C0"/>
<path d="M111.433 77.8005H93.8096C93.2885 77.8 92.7724 77.9021 92.2908 78.1012C91.8092 78.3003 91.3715 78.5923 91.0029 78.9607C90.6342 79.329 90.3417 79.7664 90.1422 80.2479C89.9426 80.7294 89.8399 81.2455 89.8399 81.7667C89.8399 82.2879 89.9426 82.804 90.1422 83.2855C90.3417 83.767 90.6342 84.2044 91.0029 84.5727C91.3715 84.9411 91.8092 85.2331 92.2908 85.4322C92.7724 85.6313 93.2885 85.7334 93.8096 85.7329H111.433C111.955 85.7334 112.471 85.6313 112.952 85.4322C113.434 85.2331 113.872 84.9411 114.24 84.5727C114.609 84.2044 114.901 83.767 115.101 83.2855C115.3 82.804 115.403 82.2879 115.403 81.7667C115.403 81.2455 115.3 80.7294 115.101 80.2479C114.901 79.7664 114.609 79.329 114.24 78.9607C113.872 78.5923 113.434 78.3003 112.952 78.1012C112.471 77.9021 111.955 77.8 111.433 77.8005Z" fill="#0371C0"/>
<path d="M191.24 35.9353H92.4288C91.2794 35.9353 90.1412 36.1617 89.0792 36.6017C88.0173 37.0417 87.0524 37.6865 86.2396 38.4995C85.4268 39.3124 84.7821 40.2775 84.3422 41.3397C83.9023 42.4019 83.6759 43.5403 83.6759 44.69V92.8427C83.6759 95.1646 84.5981 97.3913 86.2396 99.0332C87.8811 100.675 90.1074 101.597 92.4288 101.597H191.24C193.562 101.597 195.788 100.675 197.43 99.0332C199.071 97.3913 199.993 95.1646 199.993 92.8427V44.69C199.993 43.5403 199.767 42.4019 199.327 41.3397C198.887 40.2775 198.242 39.3124 197.43 38.4995C196.617 37.6865 195.652 37.0417 194.59 36.6017C193.528 36.1617 192.39 35.9353 191.24 35.9353ZM89.9841 41.9074C90.1792 41.8721 94.8061 41.0845 98.6375 43.3904C102.469 45.6958 103.941 50.1538 104.001 50.3423L104.156 50.823L103.659 50.9113C102.95 51.022 102.233 51.0747 101.515 51.0688C99.2374 51.1123 96.9899 50.5458 95.0053 49.4278C91.1742 47.1228 89.7025 42.6648 89.6418 42.4763L89.4869 41.9956L89.9841 41.9074ZM111.433 86.6141H93.8096C92.5242 86.6141 91.2915 86.1033 90.3826 85.1943C89.4737 84.2852 88.9631 83.0522 88.9631 81.7665C88.9631 80.4809 89.4737 79.2479 90.3826 78.3388C91.2915 77.4297 92.5242 76.919 93.8096 76.919H111.433C112.719 76.919 113.952 77.4297 114.861 78.3388C115.769 79.2479 116.28 80.4809 116.28 81.7665C116.28 83.0522 115.769 84.2852 114.861 85.1943C113.952 86.1033 112.719 86.6141 111.433 86.6141ZM191.622 85.7327C191.618 87.134 191.06 88.4767 190.069 89.4675C189.078 90.4583 187.736 91.0168 186.335 91.0209H173.117C171.716 91.0168 170.374 90.4583 169.383 89.4675C168.392 88.4767 167.834 87.134 167.83 85.7327V77.8004C167.834 76.3991 168.392 75.0564 169.383 74.0656C170.374 73.0747 171.716 72.5163 173.117 72.5122H186.335C187.736 72.5163 189.078 73.0747 190.069 74.0656C191.06 75.0564 191.618 76.3991 191.622 77.8004V85.7327Z" fill="#0371C0"/>
<path d="M177.303 84.1904H171.575C171.166 84.1904 170.774 84.3529 170.484 84.6422C170.195 84.9314 170.033 85.3238 170.033 85.7328C170.033 86.1419 170.195 86.5342 170.484 86.8235C170.774 87.1127 171.166 87.2752 171.575 87.2752H177.303C177.712 87.2752 178.104 87.1127 178.393 86.8235C178.682 86.5342 178.845 86.1419 178.845 85.7328C178.845 85.3238 178.682 84.9314 178.393 84.6422C178.104 84.3529 177.712 84.1904 177.303 84.1904ZM177.303 86.3939H171.575C171.488 86.3941 171.402 86.3772 171.321 86.344C171.241 86.3109 171.168 86.2623 171.106 86.2009C171.045 86.1395 170.996 86.0665 170.963 85.9862C170.929 85.9059 170.912 85.8198 170.912 85.7328C170.912 85.6459 170.929 85.5598 170.963 85.4794C170.996 85.3991 171.045 85.3262 171.106 85.2648C171.168 85.2034 171.241 85.1547 171.321 85.1216C171.402 85.0885 171.488 85.0716 171.575 85.0718H177.303C177.478 85.0723 177.645 85.1421 177.769 85.266C177.892 85.39 177.962 85.5578 177.962 85.7328C177.962 85.9078 177.892 86.0757 177.769 86.1996C177.645 86.3235 177.478 86.3934 177.303 86.3939Z" fill="#0371C0"/>
<path d="M187.877 84.1904H182.149C181.74 84.1904 181.348 84.3529 181.059 84.6422C180.77 84.9314 180.607 85.3238 180.607 85.7328C180.607 86.1419 180.77 86.5342 181.059 86.8235C181.348 87.1127 181.74 87.2752 182.149 87.2752H187.877C188.286 87.2752 188.678 87.1127 188.967 86.8235C189.257 86.5342 189.419 86.1419 189.419 85.7328C189.419 85.3238 189.257 84.9314 188.967 84.6422C188.678 84.3529 188.286 84.1904 187.877 84.1904ZM187.877 86.3939H182.149C182.062 86.3941 181.976 86.3772 181.896 86.344C181.815 86.3109 181.742 86.2623 181.681 86.2009C181.619 86.1395 181.57 86.0665 181.537 85.9862C181.504 85.9059 181.487 85.8198 181.487 85.7328C181.487 85.6459 181.504 85.5598 181.537 85.4794C181.57 85.3991 181.619 85.3262 181.681 85.2648C181.742 85.2034 181.815 85.1547 181.896 85.1216C181.976 85.0885 182.062 85.0716 182.149 85.0718H187.877C188.052 85.0723 188.22 85.1421 188.343 85.266C188.467 85.39 188.536 85.5578 188.536 85.7328C188.536 85.9078 188.467 86.0757 188.343 86.1996C188.22 86.3235 188.052 86.3934 187.877 86.3939Z" fill="#0371C0"/>
<path d="M177.303 80.2241H171.575C171.166 80.2241 170.774 80.3866 170.484 80.6759C170.195 80.9651 170.033 81.3574 170.033 81.7665C170.033 82.1756 170.195 82.5679 170.484 82.8572C170.774 83.1464 171.166 83.3089 171.575 83.3089H177.303C177.712 83.3089 178.104 83.1464 178.393 82.8572C178.682 82.5679 178.845 82.1756 178.845 81.7665C178.845 81.3574 178.682 80.9651 178.393 80.6759C178.104 80.3866 177.712 80.2241 177.303 80.2241ZM177.303 82.4275H171.575C171.488 82.4275 171.402 82.4105 171.322 82.3772C171.242 82.344 171.169 82.2953 171.108 82.2339C171.046 82.1726 170.997 82.0997 170.964 82.0195C170.931 81.9393 170.914 81.8533 170.914 81.7665C170.914 81.6797 170.931 81.5938 170.964 81.5136C170.997 81.4334 171.046 81.3605 171.108 81.2991C171.169 81.2377 171.242 81.189 171.322 81.1558C171.402 81.1226 171.488 81.1055 171.575 81.1055H177.303C177.389 81.1055 177.475 81.1226 177.556 81.1558C177.636 81.189 177.709 81.2377 177.77 81.2991C177.831 81.3605 177.88 81.4334 177.913 81.5136C177.946 81.5938 177.963 81.6797 177.963 81.7665C177.963 81.8533 177.946 81.9393 177.913 82.0195C177.88 82.0997 177.831 82.1726 177.77 82.2339C177.709 82.2953 177.636 82.344 177.556 82.3772C177.475 82.4105 177.389 82.4275 177.303 82.4275Z" fill="#0371C0"/>
<path d="M187.877 80.2241H182.149C181.74 80.2241 181.348 80.3866 181.059 80.6759C180.77 80.9651 180.607 81.3574 180.607 81.7665C180.607 82.1756 180.77 82.5679 181.059 82.8572C181.348 83.1464 181.74 83.3089 182.149 83.3089H187.877C188.286 83.3089 188.678 83.1464 188.967 82.8572C189.257 82.5679 189.419 82.1756 189.419 81.7665C189.419 81.3574 189.257 80.9651 188.967 80.6759C188.678 80.3866 188.286 80.2241 187.877 80.2241ZM187.877 82.4275H182.149C182.062 82.4275 181.976 82.4105 181.896 82.3772C181.816 82.344 181.743 82.2953 181.682 82.2339C181.62 82.1726 181.572 82.0997 181.539 82.0195C181.505 81.9393 181.488 81.8533 181.488 81.7665C181.488 81.6797 181.505 81.5938 181.539 81.5136C181.572 81.4334 181.62 81.3605 181.682 81.2991C181.743 81.2377 181.816 81.189 181.896 81.1558C181.976 81.1226 182.062 81.1055 182.149 81.1055H187.877C187.964 81.1055 188.05 81.1226 188.13 81.1558C188.21 81.189 188.283 81.2377 188.344 81.2991C188.406 81.3605 188.454 81.4334 188.488 81.5136C188.521 81.5938 188.538 81.6797 188.538 81.7665C188.538 81.8533 188.521 81.9393 188.488 82.0195C188.454 82.0997 188.406 82.1726 188.344 82.2339C188.283 82.2953 188.21 82.344 188.13 82.3772C188.05 82.4105 187.964 82.4275 187.877 82.4275Z" fill="#0371C0"/>
<path d="M177.303 76.2581H171.575C171.166 76.2581 170.774 76.4206 170.484 76.7098C170.195 76.9991 170.033 77.3914 170.033 77.8005C170.033 78.2095 170.195 78.6018 170.484 78.8911C170.774 79.1804 171.166 79.3429 171.575 79.3429H177.303C177.712 79.3429 178.104 79.1804 178.393 78.8911C178.682 78.6018 178.845 78.2095 178.845 77.8005C178.845 77.3914 178.682 76.9991 178.393 76.7098C178.104 76.4206 177.712 76.2581 177.303 76.2581ZM177.303 78.4615H171.575C171.488 78.4617 171.402 78.4448 171.321 78.4117C171.241 78.3786 171.168 78.3299 171.106 78.2685C171.045 78.2071 170.996 78.1341 170.963 78.0538C170.929 77.9735 170.912 77.8874 170.912 77.8005C170.912 77.7135 170.929 77.6274 170.963 77.5471C170.996 77.4668 171.045 77.3938 171.106 77.3324C171.168 77.271 171.241 77.2224 171.321 77.1892C171.402 77.1561 171.488 77.1392 171.575 77.1394H177.303C177.478 77.1399 177.645 77.2097 177.769 77.3337C177.892 77.4576 177.962 77.6255 177.962 77.8005C177.962 77.9755 177.892 78.1433 177.769 78.2673C177.645 78.3912 177.478 78.461 177.303 78.4615Z" fill="#0371C0"/>
<path d="M187.877 76.2581H182.149C181.74 76.2581 181.348 76.4206 181.059 76.7098C180.77 76.9991 180.607 77.3914 180.607 77.8005C180.607 78.2095 180.77 78.6018 181.059 78.8911C181.348 79.1804 181.74 79.3429 182.149 79.3429H187.877C188.286 79.3429 188.678 79.1804 188.967 78.8911C189.257 78.6018 189.419 78.2095 189.419 77.8005C189.419 77.3914 189.257 76.9991 188.967 76.7098C188.678 76.4206 188.286 76.2581 187.877 76.2581ZM187.877 78.4615H182.149C182.062 78.4617 181.976 78.4448 181.896 78.4117C181.815 78.3786 181.742 78.3299 181.681 78.2685C181.619 78.2071 181.57 78.1341 181.537 78.0538C181.504 77.9735 181.487 77.8874 181.487 77.8005C181.487 77.7135 181.504 77.6274 181.537 77.5471C181.57 77.4668 181.619 77.3938 181.681 77.3324C181.742 77.271 181.815 77.2224 181.896 77.1892C181.976 77.1561 182.062 77.1392 182.149 77.1394H187.877C188.052 77.1399 188.22 77.2097 188.343 77.3337C188.467 77.4576 188.536 77.6255 188.536 77.8005C188.536 77.9755 188.467 78.1433 188.343 78.2673C188.22 78.3912 188.052 78.461 187.877 78.4615Z" fill="#0371C0"/>
<path d="M56.9534 67.5872C56.9534 67.5872 50.6938 94.0217 58.3444 94.0217C65.9949 94.0217 84.0781 64.109 84.0781 64.109C84.0781 64.109 102.857 54.3699 95.2061 50.8917C87.5556 47.4135 77.8185 56.4569 77.8185 56.4569L66.5833 72.0586L65.9949 64.109L56.9534 67.5872Z" fill="#A0616A"/>
<path d="M71.5589 45.3265L67.3859 41.1526C67.3859 41.1526 59.0399 46.0221 58.3443 50.8916C57.6488 55.7611 54.1713 71.0653 54.1713 71.0653L67.0382 72.1088L71.2112 65.848L71.5589 45.3265Z" fill="#CFCCE0"/>
<path d="M269.243 35.4308C268.719 33.8834 262.149 28.6233 266.175 27.7392L269.477 32.1426L284.657 16.9597L286.184 18.4868L269.243 35.4308Z" fill="#0371C0"/>
<path d="M269.243 87.059C268.719 85.5116 262.149 80.2515 266.175 79.3673L269.477 83.7708L284.657 68.5879L286.184 70.1149L269.243 87.059Z" fill="#0371C0"/>
<path d="M269.243 139.425C268.719 137.877 262.149 132.617 266.175 131.733L269.477 136.136L284.657 120.954L286.184 122.481L269.243 139.425Z" fill="#0371C0"/>
<path d="M315.224 33.8382C317.811 33.8382 319.908 31.7405 319.908 29.153C319.908 26.5654 317.811 24.4678 315.224 24.4678C312.637 24.4678 310.539 26.5654 310.539 29.153C310.539 31.7405 312.637 33.8382 315.224 33.8382Z" fill="#3F3D56"/>
<path d="M408.206 28.6843H332.789V29.6214H408.206V28.6843Z" fill="#3F3D56"/>
<path d="M315.224 85.4661C317.811 85.4661 319.908 83.3685 319.908 80.7809C319.908 78.1933 317.811 76.0957 315.224 76.0957C312.637 76.0957 310.539 78.1933 310.539 80.7809C310.539 83.3685 312.637 85.4661 315.224 85.4661Z" fill="#3F3D56"/>
<path d="M408.206 80.3125H332.789V81.2495H408.206V80.3125Z" fill="#3F3D56"/>
<path d="M315.224 137.832C317.811 137.832 319.908 135.734 319.908 133.147C319.908 130.559 317.811 128.461 315.224 128.461C312.637 128.461 310.539 130.559 310.539 133.147C310.539 135.734 312.637 137.832 315.224 137.832Z" fill="#3F3D56"/>
<path d="M408.206 132.678H332.789V133.615H408.206V132.678Z" fill="#3F3D56"/>
<path d="M281.075 146.406H257.653V122.511H273.58V123.448H258.59V145.468H280.138V134.693H281.075V146.406Z" fill="#3F3D56"/>
<path d="M281.075 93.9314H257.653V70.0369H273.58V70.9739H258.59V92.9944H280.138V82.2184H281.075V93.9314Z" fill="#3F3D56"/>
<path d="M281.075 40.52H257.653V16.6255H273.58V17.5625H258.59V39.583H280.138V28.807H281.075V40.52Z" fill="#3F3D56"/>
</g>
<defs>
<clipPath id="clip0">
<rect width="416" height="250.644" fill="white"/>
</clipPath>
</defs>
</svg>
