<svg width="149" height="149" viewBox="0 0 149 149" fill="none" xmlns="http://www.w3.org/2000/svg">
<circle cx="74.5" cy="74.5" r="74.5" fill="#C4C4C4"/>
<path d="M74.0562 72.3322C65.969 72.3322 59.3901 65.7534 59.3901 57.6661C59.3901 49.5788 65.969 43 74.0562 43C82.1435 43 88.7224 49.5788 88.7224 57.6661C88.7224 65.7534 82.1435 72.3322 74.0562 72.3322ZM74.0562 48.1718C68.8211 48.1718 64.5619 52.4309 64.5619 57.6661C64.5619 62.9013 68.8211 67.1604 74.0562 67.1604C79.2914 67.1604 83.5506 62.9013 83.5506 57.6661C83.5506 52.4309 79.2914 48.1718 74.0562 48.1718Z" fill="#666363"/>
<path d="M102.526 105.112H45.5859C44.1535 105.112 43 103.959 43 102.526C43 94.0716 46.2958 86.1491 52.2661 80.2167C56.1196 76.3886 61.5576 74.1956 67.1731 74.1956H80.9392C86.5673 74.1956 91.9927 76.3886 95.8462 80.2167C101.817 86.1491 105.112 94.0716 105.112 102.526C105.112 103.959 103.959 105.112 102.526 105.112ZM48.2986 99.9405H99.8137C99.2306 93.8561 96.5687 88.2279 92.1955 83.8927C89.3054 81.028 85.1983 79.3801 80.9392 79.3801H67.1731C62.9013 79.3801 58.8069 81.028 55.9168 83.8927C51.5436 88.2279 48.8817 93.8561 48.2986 99.9405Z" fill="#666363"/>
</svg>
