<svg xmlns="http://www.w3.org/2000/svg" width="50" height="50" viewBox="0 0 50 50" fill="none">
<path d="M48.9999 25C48.9999 38.2548 38.2548 48.9999 25 48.9999C11.7451 48.9999 1 38.2548 1 25C1 11.7451 11.7451 1 25 1C38.2548 1 48.9999 11.7451 48.9999 25Z" fill="#FFC82C" stroke="#F8B700" stroke-width="2"/>
<path d="M36.3734 41.386H24.2332C23.6714 41.386 23.2162 40.9309 23.2162 40.369C23.2162 39.8072 23.6715 39.3521 24.2332 39.3521H36.3734C36.9353 39.3521 37.3904 39.8072 37.3904 40.369C37.3904 40.9309 36.9353 41.386 36.3734 41.386Z" fill="#D68101"/>
<path d="M21.4515 30.9195C18.9782 30.9195 16.7437 30.2866 15.4741 29.2267C15.0429 28.8668 14.9853 28.2254 15.3453 27.7943C15.7052 27.3632 16.3465 27.3054 16.7777 27.6655C17.6655 28.4067 19.5001 28.8857 21.4516 28.8857C23.3565 28.8857 25.2163 28.3976 26.1897 27.6426C26.6333 27.2983 27.2721 27.379 27.6165 27.8228C27.9609 28.2664 27.8801 28.9053 27.4364 29.2496C26.0883 30.2952 23.851 30.9195 21.4515 30.9195Z" fill="#D68101"/>
<path d="M39.093 30.9196C36.6196 30.9196 34.3851 30.2867 33.1156 29.2267C32.6843 28.8668 32.6267 28.2254 32.9867 27.7943C33.3468 27.3631 33.988 27.3054 34.4192 27.6655C35.307 28.4067 37.1415 28.8857 39.0931 28.8857C40.9979 28.8857 42.8577 28.3976 43.8311 27.6426C44.2747 27.2983 44.9136 27.3791 45.258 27.8228C45.6023 28.2665 45.5215 28.9053 45.0778 29.2497C43.7297 30.2953 41.4924 30.9196 39.093 30.9196Z" fill="#D68101"/>
<path d="M16.6349 25.7152C16.2569 25.7152 15.9052 25.6728 15.5917 25.586C15.0504 25.4363 14.7329 24.876 14.8826 24.3346C15.0324 23.7933 15.5932 23.4757 16.1341 23.6255C16.6348 23.7643 17.6622 23.6669 18.8295 23.1373C19.9721 22.6194 20.7477 21.8863 21.0095 21.3898C21.2716 20.8928 21.8866 20.7024 22.3835 20.9645C22.8803 21.2265 23.0707 21.8417 22.8088 22.3384C22.2758 23.3489 21.1023 24.34 19.6695 24.9898C18.6223 25.4648 17.5518 25.7152 16.6349 25.7152Z" fill="#D68101"/>
<path d="M43.6476 25.7153C42.7304 25.7153 41.6603 25.4648 40.6127 24.9898C39.18 24.3403 38.0066 23.3491 37.4738 22.3386C37.2117 21.8419 37.4022 21.2267 37.8991 20.9647C38.396 20.7023 39.0111 20.8932 39.273 21.39C39.535 21.8865 40.3105 22.6194 41.4529 23.1373C42.6203 23.6668 43.6481 23.7642 44.1483 23.6256C44.6903 23.4763 45.2499 23.7932 45.3997 24.3346C45.5494 24.8759 45.2322 25.4363 44.6908 25.5861C44.3773 25.6729 44.0254 25.7153 43.6476 25.7153Z" fill="#D68101"/>
<path d="M34.3439 11.2188C34.7823 9.66948 32.8887 7.77708 30.1144 6.99196C27.3401 6.20683 24.7357 6.8263 24.2972 8.37558C23.8588 9.92485 25.7524 11.8173 28.5267 12.6024C31.301 13.3875 33.9054 12.768 34.3439 11.2188Z" fill="#FFD55F"/>
</svg>