<svg width="418" height="358" viewBox="0 0 418 358" fill="none" xmlns="http://www.w3.org/2000/svg">
<g clip-path="url(#clip0)">
<g opacity="0.5">
<path opacity="0.5" d="M230.782 0.0117722L191.747 259.077L378.993 287.367L418.028 28.3014L230.782 0.0117722Z" fill="url(#paint0_linear)"/>
</g>
<path d="M232.879 2.2809L194.707 255.62L377.189 283.189L415.361 29.8507L232.879 2.2809Z" fill="#F5F5F5"/>
<path d="M372.329 135.716L240.624 115.818L239.42 123.812L371.125 143.71L372.329 135.716Z" fill="#E0E0E0"/>
<path d="M369.319 155.696L237.614 135.798L236.409 143.792L368.114 163.69L369.319 155.696Z" fill="#E0E0E0"/>
<path d="M381.962 71.7711L314.112 61.5203L312.908 69.5142L380.757 79.765L381.962 71.7711Z" fill="#E0E0E0"/>
<path d="M372.967 90.852L317.09 82.4099L315.886 90.4038L371.763 98.8459L372.967 90.852Z" fill="#0371C0"/>
<path d="M350.344 173.268L234.6 155.781L233.396 163.775L349.139 181.262L350.344 173.268Z" fill="#E0E0E0"/>
<path d="M331.364 190.839L231.587 175.764L230.382 183.758L330.16 198.833L331.364 190.839Z" fill="#E0E0E0"/>
<path d="M316.381 209.012L228.576 195.746L227.372 203.74L315.177 217.006L316.381 209.012Z" fill="#E0E0E0"/>
<path d="M337.316 232.613L225.566 215.729L224.362 223.723L336.111 240.607L337.316 232.613Z" fill="#E0E0E0"/>
<path d="M266.459 242.342L222.559 235.71L221.355 243.703L265.255 250.336L266.459 242.342Z" fill="#0371C0"/>
<g opacity="0.5">
<path opacity="0.5" d="M301.252 72.5152C301.945 67.91 301.436 63.2036 299.774 58.854C298.112 54.5044 295.354 50.6598 291.767 47.6943C288.181 44.7288 283.889 42.7434 279.31 41.9315C274.73 41.1195 270.019 41.5086 265.634 43.0609C261.249 44.6131 257.34 47.2757 254.287 50.7894C251.235 54.3031 249.142 58.5483 248.214 63.1118C247.286 67.6753 247.554 72.4017 248.991 76.8309C250.428 81.2601 252.986 85.2414 256.416 88.3872C256.416 88.4255 256.416 88.4685 256.416 88.5068C257.158 89.4777 258.086 90.2912 259.145 90.9001L259.198 90.7852C260.283 92.044 265.278 94.5521 271.315 95.4472H271.449C275.273 96.0312 279.522 95.9785 283.466 94.5522C283.466 94.5522 283.509 94.4851 283.581 94.3607C284.571 94.0648 285.507 93.6106 286.353 93.0157L286.439 92.7189C290.358 90.8049 293.754 87.966 296.334 84.4466C298.915 80.9271 300.602 76.8326 301.252 72.5152Z" fill="url(#paint1_linear)"/>
</g>
<path d="M300.333 71.4123C302.487 57.1221 292.663 43.7896 278.392 41.6335C264.121 39.4774 250.807 49.3141 248.654 63.6044C246.5 77.8947 256.324 91.2271 270.595 93.3832C284.866 95.5393 298.18 85.7026 300.333 71.4123Z" fill="#F5F5F5"/>
<path d="M262.582 76.129C262.582 76.129 256.368 75.703 256.287 87.181C257.008 88.1193 257.908 88.9051 258.935 89.4928L264.164 78.2781L262.582 76.129Z" fill="#FDA57D"/>
<path d="M282.562 79.1493C282.562 79.1493 288.643 80.5852 285.325 91.5702C284.36 92.2571 283.268 92.7452 282.113 93.0061L280.416 80.748L282.562 79.1493Z" fill="#FDA57D"/>
<path d="M265.622 57.7681C265.622 57.7681 261.406 65.862 259.929 64.8185C259.929 64.8185 273.342 80.4847 288.968 69.203C287.752 66.1537 286.176 63.2612 284.274 60.5873L265.622 57.7681Z" fill="#333333"/>
<path d="M287.104 60.2011C288.058 53.8676 283.704 47.9586 277.379 47.0031C271.054 46.0475 265.153 50.4071 264.199 56.7406C263.245 63.0741 267.599 68.9832 273.924 69.9388C280.249 70.8943 286.15 66.5347 287.104 60.2011Z" fill="#333333"/>
<path opacity="0.1" d="M282.443 79.1301L262.462 76.1146L259.394 83.8352C259.394 83.8352 257.74 87.3724 258.858 89.2104C259.977 91.0484 272.142 96.6726 282.28 93.0396C283.418 91.0288 283.864 88.6999 283.552 86.4103C283.05 82.5141 283.327 86.104 283.327 86.104L282.443 79.1301Z" fill="black"/>
<path opacity="0.1" d="M282.711 79.1732L262.73 76.1577L259.666 83.8735C259.666 83.8735 258.012 87.4107 259.131 89.2487C260.249 91.0868 272.414 96.7109 282.553 93.0779C283.69 91.0671 284.137 88.7382 283.824 86.4487C283.322 82.5525 283.6 86.1423 283.6 86.1423L282.711 79.1732Z" fill="black"/>
<path d="M282.562 79.1493L262.582 76.1338L259.513 83.8544C259.513 83.8544 257.859 87.3916 258.978 89.2296C260.096 91.0676 272.261 96.6917 282.4 93.0588C283.537 91.048 283.984 88.7191 283.671 86.4295C283.169 82.5333 283.447 86.1232 283.447 86.1232L282.562 79.1493Z" fill="#FDD835"/>
<path opacity="0.1" d="M269.705 70.44L277.697 71.6476L276.609 78.87C276.482 79.7148 276.025 80.4743 275.338 80.9815C274.651 81.4888 273.792 81.7021 272.948 81.5747L271.313 81.3276C270.469 81.2001 269.711 80.7423 269.204 80.0548C268.698 79.3673 268.484 78.5065 268.612 77.6618L269.7 70.4393L269.705 70.44Z" fill="black"/>
<path d="M269.744 70.1434L277.736 71.351L276.648 78.5734C276.521 79.4182 276.063 80.1777 275.377 80.6849C274.69 81.1922 273.831 81.4055 272.987 81.2781L271.356 81.0317C270.513 80.9042 269.754 80.4464 269.248 79.7589C268.741 79.0715 268.528 78.2106 268.655 77.3659L269.744 70.1434Z" fill="#FDA57D"/>
<path opacity="0.1" d="M269.594 71.2754C272.024 72.6284 274.858 73.0648 277.582 72.5055L277.73 71.5243L269.738 70.3181L269.594 71.2754Z" fill="black"/>
<path d="M286.729 62.6887C287.683 56.3552 283.329 50.4462 277.004 49.4906C270.679 48.535 264.778 52.8947 263.824 59.2282C262.87 65.5617 267.223 71.4707 273.548 72.4263C279.874 73.3819 285.775 69.0222 286.729 62.6887Z" fill="#FDA57D"/>
<path d="M264.958 54.9392L286.802 58.237C286.802 58.237 286.267 49.1427 277.926 48.4391C269.585 47.7355 264.958 54.9392 264.958 54.9392Z" fill="#333333"/>
<path d="M265.194 58.9311C265.361 57.8255 265.02 56.8572 264.433 56.7684C263.845 56.6797 263.234 57.5041 263.068 58.6098C262.901 59.7155 263.242 60.6838 263.829 60.7725C264.417 60.8612 265.028 60.0368 265.194 58.9311Z" fill="#FDA57D"/>
<path d="M287.572 62.3138C287.739 61.2081 287.398 60.2399 286.81 60.1511C286.223 60.0624 285.612 60.8868 285.445 61.9925C285.278 63.0982 285.62 64.0664 286.207 64.1552C286.794 64.2439 287.405 63.4195 287.572 62.3138Z" fill="#FDA57D"/>
<path opacity="0.1" d="M264.924 55.2359L286.769 58.5338C286.769 58.5338 286.233 49.4395 277.892 48.7359C269.551 48.0323 264.924 55.2359 264.924 55.2359Z" fill="black"/>
<g opacity="0.5">
<path opacity="0.5" d="M187.629 37.2343L0.156891 67.5737L42.0201 326.951L229.492 296.612L187.629 37.2343Z" fill="url(#paint2_linear)"/>
</g>
<path d="M184.81 38.7488L2.69362 68.6444L44.0858 321.475L226.203 291.58L184.81 38.7488Z" fill="#F5F5F5"/>
<path d="M176.368 152.709L44.9271 174.286L46.2332 182.264L177.674 160.687L176.368 152.709Z" fill="#E0E0E0"/>
<path d="M179.633 172.653L48.1917 194.23L49.4978 202.208L180.939 180.631L179.633 172.653Z" fill="#E0E0E0"/>
<path d="M165.926 88.8946L98.2119 100.01L99.518 107.988L167.232 96.8725L165.926 88.8946Z" fill="#E0E0E0"/>
<path d="M163.214 109.819L107.448 118.974L108.754 126.951L164.52 117.797L163.214 109.819Z" fill="#0371C0"/>
<path d="M166.968 195.21L51.4565 214.172L52.7626 222.15L168.274 203.188L166.968 195.21Z" fill="#E0E0E0"/>
<path d="M154.298 217.764L54.7205 234.11L56.0266 242.088L155.604 225.742L154.298 217.764Z" fill="#E0E0E0"/>
<path d="M145.615 239.672L57.9855 254.056L59.2916 262.034L146.921 247.649L145.615 239.672Z" fill="#E0E0E0"/>
<path d="M172.776 255.687L61.2507 273.995L62.5568 281.972L174.083 263.665L172.776 255.687Z" fill="#E0E0E0"/>
<path d="M108.331 286.748L64.5188 293.94L65.8249 301.918L109.637 294.725L108.331 286.748Z" fill="#0371C0"/>
<g opacity="0.5">
<path opacity="0.5" d="M91.7959 112.702C91.0217 107.978 89.0393 103.535 86.0416 99.8048C83.0439 96.0751 79.133 93.1859 74.6895 91.4186C70.2459 89.6512 65.4212 89.0659 60.6847 89.7195C55.9483 90.3731 51.4615 92.2434 47.661 95.1484C43.8605 98.0534 40.8758 101.894 38.9973 106.297C37.1188 110.699 36.4106 115.514 36.9415 120.272C37.4724 125.03 39.2244 129.57 42.0269 133.449C44.8294 137.327 48.5871 140.414 52.9342 142.407L52.9724 142.527C54.0053 143.237 55.1686 143.735 56.3949 143.992V143.862C57.8528 144.753 63.5315 145.629 69.7216 144.595H69.8555C73.7799 143.958 77.9194 142.56 81.3276 139.918C81.3276 139.918 81.3276 139.842 81.3754 139.698C82.2515 139.096 83.0247 138.355 83.665 137.506C83.665 137.397 83.665 137.292 83.665 137.19C86.9029 134.075 89.3351 130.218 90.7516 125.952C92.1682 121.686 92.5266 117.138 91.7959 112.702Z" fill="url(#paint3_linear)"/>
</g>
<path d="M68.8176 143.725C83.4586 141.322 93.3818 127.489 90.9816 112.828C88.5814 98.1672 74.7668 88.2306 60.1257 90.6341C45.4847 93.0375 35.5615 106.871 37.9617 121.532C40.3619 136.192 54.1765 146.129 68.8176 143.725Z" fill="#F5F5F5"/>
<path d="M54.6932 129.45C54.6932 129.45 48.4791 131.006 52.0164 142.254C53.0179 142.948 54.1471 143.436 55.3385 143.69L56.9207 131.063L54.6932 129.45Z" fill="#4D8AF0"/>
<path d="M75.19 126.085C75.19 126.085 81.5905 125.564 81.8056 137.367C81.0747 138.335 80.1601 139.148 79.1144 139.76L73.5887 128.302L75.19 126.085Z" fill="#4D8AF0"/>
<path d="M63.8158 119.797C70.3052 118.731 74.7036 112.6 73.6397 106.102C72.5759 99.6035 66.4527 95.1992 59.9632 96.2645C53.4737 97.3298 49.0754 103.461 50.1393 109.959C51.2031 116.458 57.3263 120.862 63.8158 119.797Z" fill="#333333"/>
<path d="M75.0705 126.105L54.5737 129.455L54.0049 137.98C54.0049 137.98 53.5269 141.967 55.176 143.408C56.8251 144.848 70.5295 146.509 79.2721 139.732C79.7507 137.405 79.4534 134.985 78.4261 132.844C76.7053 129.192 78.1058 132.614 78.1058 132.614L75.0705 126.105Z" fill="#4D8AF0"/>
<path d="M75.343 126.062L54.8462 129.412L54.2773 137.937C54.2773 137.937 53.7993 141.924 55.4484 143.365C57.0975 144.805 70.8019 146.466 79.5446 139.689C80.0231 137.362 79.7259 134.942 78.6985 132.801C76.9777 129.149 78.3783 132.571 78.3783 132.571L75.343 126.062Z" fill="#4D8AF0"/>
<path d="M75.19 126.085L54.6932 129.436L54.1244 137.975C54.1244 137.975 53.6464 141.962 55.2955 143.403C56.9446 144.844 70.6489 146.505 79.3916 139.727C79.8702 137.4 79.5729 134.98 78.5456 132.839C76.8248 129.187 78.2253 132.609 78.2253 132.609L75.19 126.085Z" fill="#4D8AF0"/>
<path opacity="0.1" d="M59.8717 121.602L68.07 120.256L69.2972 127.752C69.4352 128.595 69.2331 129.459 68.7354 130.152C68.2376 130.846 67.485 131.314 66.643 131.452L64.7892 131.756C63.9472 131.895 63.0849 131.692 62.392 131.194C61.699 130.695 61.2322 129.942 61.0942 129.099L59.8669 121.603L59.8717 121.602Z" fill="black"/>
<path d="M59.8228 121.298L68.0211 119.952L69.2483 127.448C69.3863 128.291 69.1843 129.154 68.6865 129.848C68.1887 130.542 67.4361 131.01 66.5941 131.148L64.7403 131.452C63.8984 131.59 63.0361 131.388 62.3431 130.89C61.6502 130.391 61.1833 129.638 61.0453 128.794L59.8181 121.298L59.8228 121.298Z" fill="#FDA57D"/>
<path opacity="0.1" d="M60.023 122.481C62.8269 123.037 65.7371 122.569 68.2255 121.16L68.0582 120.15L59.8604 121.5L60.023 122.481Z" fill="black"/>
<path d="M64.2375 122.351C70.727 121.286 75.1253 115.155 74.0615 108.656C72.9976 102.158 66.8744 97.754 60.385 98.8193C53.8955 99.8846 49.4972 106.016 50.561 112.514C51.6249 119.012 57.7481 123.417 64.2375 122.351Z" fill="#FDA57D"/>
<path opacity="0.1" d="M50.3864 108.265L72.8 104.589C72.8 104.589 69.4014 95.8397 61.0268 97.8117C52.6521 99.7837 50.3864 108.265 50.3864 108.265Z" fill="black"/>
<path d="M50.3338 107.964L72.7665 104.283C72.7665 104.283 69.3679 95.5334 60.9933 97.5054C52.6187 99.4774 50.3338 107.964 50.3338 107.964Z" fill="#333333"/>
<path d="M51.1954 114.732C51.8018 114.633 52.1444 113.631 51.9606 112.493C51.7769 111.354 51.1364 110.511 50.5301 110.609C49.9237 110.707 49.5811 111.71 49.7649 112.848C49.9486 113.986 50.5891 114.83 51.1954 114.732Z" fill="#FDA57D"/>
<path d="M74.0103 110.256C74.6147 110.156 74.9541 109.156 74.7683 108.021C74.5825 106.887 73.942 106.047 73.3376 106.146C72.7332 106.245 72.3938 107.246 72.5796 108.381C72.7654 109.515 73.4059 110.355 74.0103 110.256Z" fill="#FDA57D"/>
<g opacity="0.5">
<path opacity="0.5" d="M324.464 79.2019H135.098V341.199H324.464V79.2019Z" fill="url(#paint4_linear)"/>
</g>
<path d="M322.055 81.1309H137.507V337.337H322.055V81.1309Z" fill="white"/>
<g opacity="0.5">
<path opacity="0.5" d="M162.153 139.751C162.154 134.856 163.42 130.044 165.828 125.784C168.237 121.524 171.706 117.961 175.897 115.442C180.089 112.923 184.86 111.533 189.747 111.408C194.634 111.283 199.471 112.427 203.785 114.729C208.1 117.031 211.745 120.412 214.368 124.543C216.99 128.674 218.5 133.415 218.75 138.304C219 143.193 217.982 148.063 215.795 152.441C213.607 156.819 210.325 160.555 206.268 163.286V163.41C205.343 164.299 204.252 164.996 203.056 165.459L203.018 165.335C201.694 166.474 196.111 168.297 189.696 168.278H189.557C185.494 168.278 181.087 167.56 177.206 165.459C177.206 165.459 177.172 165.383 177.12 165.244C176.136 164.781 175.234 164.162 174.448 163.41L174.405 163.09C170.626 160.486 167.536 157.001 165.402 152.935C163.267 148.869 162.153 144.344 162.153 139.751Z" fill="url(#paint5_linear)"/>
</g>
<path d="M190.465 167.254C205.635 167.254 217.932 154.94 217.932 139.751C217.932 124.561 205.635 112.248 190.465 112.248C175.296 112.248 162.999 124.561 162.999 139.751C162.999 154.94 175.296 167.254 190.465 167.254Z" fill="#F5F5F5"/>
<path d="M179.691 150.229C179.691 150.229 173.147 150.76 174.878 162.726C175.775 163.588 176.835 164.263 177.994 164.712L181.675 152.234L179.691 150.229Z" fill="#BE7C5E"/>
<path d="M200.929 150.229C200.929 150.229 207.473 150.76 205.742 162.726C204.845 163.588 203.786 164.263 202.626 164.712L198.96 152.196L200.929 150.229Z" fill="#BE7C5E"/>
<path d="M179.973 130.657C179.973 130.657 179.471 132.126 178.754 133.825C177.196 137.54 178.974 151.813 182.703 153.335C186.885 155.044 192.387 156.135 198.099 154.048C203.066 152.234 204.595 135.989 201.087 132.03C200.676 131.552 200.245 131.107 199.796 130.657H179.973Z" fill="#333333"/>
<path d="M190.485 142.001C197.208 142.001 202.659 136.542 202.659 129.809C202.659 123.076 197.208 117.618 190.485 117.618C183.761 117.618 178.31 123.076 178.31 129.809C178.31 136.542 183.761 142.001 190.485 142.001Z" fill="#333333"/>
<path opacity="0.1" d="M200.805 150.229H179.567L177.583 158.734C177.583 158.734 176.417 162.673 177.865 164.406C179.314 166.139 192.841 170.078 202.784 164.688C203.65 162.42 203.749 159.93 203.066 157.6C201.933 153.632 202.784 157.317 202.784 157.317L200.805 150.229Z" fill="black"/>
<path opacity="0.1" d="M201.087 150.229H179.839L177.856 158.734C177.856 158.734 176.689 162.673 178.138 164.406C179.586 166.139 193.114 170.078 203.056 164.688C203.922 162.42 204.021 159.93 203.338 157.6C202.205 153.632 203.056 157.317 203.056 157.317L201.087 150.229Z" fill="black"/>
<path d="M200.929 150.229H179.691L177.707 158.734C177.707 158.734 176.541 162.673 177.989 164.406C179.438 166.139 192.965 170.078 202.908 164.688C203.774 162.42 203.873 159.93 203.19 157.6C202.057 153.632 202.908 157.317 202.908 157.317L200.929 150.229Z" fill="#3AD29F"/>
<path opacity="0.1" d="M186.206 143.168H194.701V151.009C194.701 151.863 194.362 152.682 193.758 153.287C193.155 153.891 192.337 154.23 191.484 154.23H189.419C188.565 154.23 187.747 153.891 187.144 153.287C186.541 152.682 186.202 151.863 186.202 151.009V143.168H186.206Z" fill="black"/>
<path d="M186.206 142.853H194.701V150.693C194.701 151.547 194.362 152.367 193.758 152.971C193.155 153.575 192.337 153.914 191.484 153.914H189.419C188.565 153.914 187.747 153.575 187.144 152.971C186.541 152.367 186.202 151.547 186.202 150.693V142.853H186.206Z" fill="#BE7C5E"/>
<path opacity="0.1" d="M186.221 144.059C188.961 145.075 191.975 145.075 194.715 144.059V143.015H186.221V144.059Z" fill="black"/>
<path d="M190.485 144.647C197.208 144.647 202.659 139.189 202.659 132.456C202.659 125.723 197.208 120.265 190.485 120.265C183.761 120.265 178.31 125.723 178.31 132.456C178.31 139.189 183.761 144.647 190.485 144.647Z" fill="#BE7C5E"/>
<path d="M178.84 127.828H202.062C202.062 127.828 200.078 118.437 191.302 119.04C182.526 119.643 178.84 127.828 178.84 127.828Z" fill="#333333"/>
<path d="M178.563 134.064C179.189 134.064 179.696 133.113 179.696 131.939C179.696 130.766 179.189 129.814 178.563 129.814C177.937 129.814 177.43 130.766 177.43 131.939C177.43 133.113 177.937 134.064 178.563 134.064Z" fill="#BE7C5E"/>
<path d="M202.349 134.064C202.974 134.064 203.481 133.113 203.481 131.939C203.481 130.766 202.974 129.814 202.349 129.814C201.723 129.814 201.216 130.766 201.216 131.939C201.216 133.113 201.723 134.064 202.349 134.064Z" fill="#BE7C5E"/>
<path opacity="0.1" d="M178.84 128.139H202.062C202.062 128.139 200.078 118.748 191.302 119.351C182.526 119.954 178.84 128.139 178.84 128.139Z" fill="black"/>
<path d="M295.311 192.225H162.115V200.309H295.311V192.225Z" fill="#E0E0E0"/>
<path d="M295.311 212.434H162.115V220.518H295.311V212.434Z" fill="#E0E0E0"/>
<path d="M295.316 127.56H226.698V135.644H295.316V127.56Z" fill="#E0E0E0"/>
<path d="M289.259 147.768H232.75V155.853H289.259V147.768Z" fill="#0371C0"/>
<path d="M279.169 232.642H162.115V240.726H279.169V232.642Z" fill="#E0E0E0"/>
<path d="M263.022 252.851H162.115V260.935H263.022V252.851Z" fill="#E0E0E0"/>
<path d="M250.914 273.064H162.115V281.148H250.914V273.064Z" fill="#E0E0E0"/>
<path d="M275.129 293.272H162.115V301.357H275.129V293.272Z" fill="#E0E0E0"/>
<path d="M206.512 313.481H162.115V321.565H206.512V313.481Z" fill="#0371C0"/>
<g opacity="0.5">
<path opacity="0.5" d="M311.692 358.005C333.97 358.005 352.031 339.92 352.031 317.612C352.031 295.303 333.97 277.219 311.692 277.219C289.413 277.219 271.353 295.303 271.353 317.612C271.353 339.92 289.413 358.005 311.692 358.005Z" fill="url(#paint6_linear)"/>
</g>
<path d="M311.692 355.626C332.658 355.626 349.655 338.606 349.655 317.612C349.655 296.617 332.658 279.597 311.692 279.597C290.726 279.597 273.729 296.617 273.729 317.612C273.729 338.606 290.726 355.626 311.692 355.626Z" fill="#69F0AE"/>
<path d="M295.215 312.538L309.45 325.605L329.617 295.91L336.739 301.85L309.45 337.485L289.283 314.917L295.215 312.538Z" fill="white"/>
</g>
<defs>
<linearGradient id="paint0_linear" x1="285.37" y1="273.222" x2="324.508" y2="14.1721" gradientUnits="userSpaceOnUse">
<stop stop-color="#808080" stop-opacity="0.25"/>
<stop offset="0.54" stop-color="#808080" stop-opacity="0.12"/>
<stop offset="1" stop-color="#808080" stop-opacity="0.1"/>
</linearGradient>
<linearGradient id="paint1_linear" x1="31572.7" y1="39684.6" x2="32489.4" y2="33616.9" gradientUnits="userSpaceOnUse">
<stop stop-color="#808080" stop-opacity="0.25"/>
<stop offset="0.54" stop-color="#808080" stop-opacity="0.12"/>
<stop offset="1" stop-color="#808080" stop-opacity="0.1"/>
</linearGradient>
<linearGradient id="paint2_linear" x1="105178" y1="85532.9" x2="82203.5" y2="-56432.9" gradientUnits="userSpaceOnUse">
<stop stop-color="#808080" stop-opacity="0.25"/>
<stop offset="0.54" stop-color="#808080" stop-opacity="0.12"/>
<stop offset="1" stop-color="#808080" stop-opacity="0.1"/>
</linearGradient>
<linearGradient id="paint3_linear" x1="21699.1" y1="-2140.05" x2="20652.2" y2="-8517.74" gradientUnits="userSpaceOnUse">
<stop stop-color="#808080" stop-opacity="0.25"/>
<stop offset="0.54" stop-color="#808080" stop-opacity="0.12"/>
<stop offset="1" stop-color="#808080" stop-opacity="0.1"/>
</linearGradient>
<linearGradient id="paint4_linear" x1="91165.2" y1="186842" x2="91165.2" y2="43431.9" gradientUnits="userSpaceOnUse">
<stop stop-color="#808080" stop-opacity="0.25"/>
<stop offset="0.54" stop-color="#808080" stop-opacity="0.12"/>
<stop offset="1" stop-color="#808080" stop-opacity="0.1"/>
</linearGradient>
<linearGradient id="paint5_linear" x1="28770.8" y1="24433.2" x2="28770.8" y2="17673" gradientUnits="userSpaceOnUse">
<stop stop-color="#808080" stop-opacity="0.25"/>
<stop offset="0.54" stop-color="#808080" stop-opacity="0.12"/>
<stop offset="1" stop-color="#808080" stop-opacity="0.1"/>
</linearGradient>
<linearGradient id="paint6_linear" x1="52878.7" y1="60700.4" x2="52878.7" y2="47066.2" gradientUnits="userSpaceOnUse">
<stop stop-color="#808080" stop-opacity="0.25"/>
<stop offset="0.54" stop-color="#808080" stop-opacity="0.12"/>
<stop offset="1" stop-color="#808080" stop-opacity="0.1"/>
</linearGradient>
<clipPath id="clip0">
<rect width="418" height="358" fill="white"/>
</clipPath>
</defs>
</svg>
