<?xml version="1.0" encoding="iso-8859-1"?>
<!-- Generator: Adobe Illustrator 19.0.0, SVG Export Plug-In . SVG Version: 6.00 Build 0) -->
<svg version="1.1" id="Layer_1" xmlns="http://www.w3.org/2000/svg" fill="#565656" xmlns:xlink="http://www.w3.org/1999/xlink" x="0px" y="0px" viewBox="0 0 512 512" style="enable-background:new 0 0 512 512;" xml:space="preserve">
	<g>
		<g>
			<path d="M410.212,433.518l-0.125-0.23L305.106,262.029V31.347h28.578V0H178.307v31.347h28.578v230.682L101.706,433.664
			l-0.407,0.711c-9.112,16.771-8.714,37.366,1.034,53.75C111.225,503.077,126.449,512,143.073,512h225.834
			c16.812,0,32.141-9.08,41.002-24.294C419.606,471.04,419.731,450.278,410.212,433.518z M200.971,440.592h-23.51v-23.51h23.51
			V440.592z M210.114,391.481h-23.51v-23.51h23.51V391.481z M241.461,422.045h-23.51v-23.51h23.51V422.045z M217.115,305.33
			l21.117-34.461V31.347h35.527v239.522l21.117,34.461H217.115z" />
		</g>
	</g>
	<g>
	</g>
	<g>
	</g>
	<g>
	</g>
	<g>
	</g>
	<g>
	</g>
	<g>
	</g>
	<g>
	</g>
	<g>
	</g>
	<g>
	</g>
	<g>
	</g>
	<g>
	</g>
	<g>
	</g>
	<g>
	</g>
	<g>
	</g>
	<g>
	</g>
</svg>
