<svg width="20" height="16" viewBox="0 0 20 16" fill="none" xmlns="http://www.w3.org/2000/svg">
<path d="M5.9825 12.022C4.71876 11.9946 3.61564 11.3003 3.00472 10.2783C3.4 10.2752 3.78891 10.2277 4.15402 10.1278L4.12236 9.15568C2.7534 8.87565 1.66124 7.79826 1.36642 6.42422C1.75963 6.5493 2.17731 6.62354 2.60221 6.6316L4.30742 6.66396L2.88959 5.71603C1.94892 5.08712 1.31846 4.00048 1.31846 2.77662C1.31846 2.3825 1.38377 2.00479 1.50357 1.64964C3.56404 3.86714 6.4449 5.30098 9.66795 5.45818L10.3256 5.49025L10.1799 4.84814C10.1236 4.59991 10.0988 4.33066 10.0988 4.03815C10.0988 2.08881 11.6758 0.5 13.6332 0.5C14.6422 0.5 15.5678 0.927823 16.2177 1.61983L16.4078 1.82224L16.6801 1.76785C17.1124 1.68151 17.5334 1.56463 17.9408 1.41788C17.7017 1.68523 17.4217 1.91621 17.1098 2.10239L17.4292 3.0277C17.6924 2.99426 17.9525 2.94993 18.2091 2.89471C17.9505 3.14359 17.6741 3.3734 17.3796 3.5824L17.1558 3.74122L17.1696 4.0153C17.1779 4.18164 17.1837 4.34491 17.1837 4.512C17.1837 9.63112 13.2886 15.5 6.19323 15.5C4.70979 15.5 3.3009 15.2104 2.01472 14.6804C3.61311 14.4861 5.07963 13.8545 6.27976 12.9157L7.38351 12.0522L5.9825 12.022Z" stroke="#9DA8B6"/>
</svg>
